<svg width="319" height="44" viewBox="0 0 319 44" fill="none" xmlns="http://www.w3.org/2000/svg">
<path fill-rule="evenodd" clip-rule="evenodd" d="M31.8266 4.0029C31.9676 3.98904 32.1089 4.02519 32.2258 4.10502C31.8173 9.20211 28.67 11.746 22.9415 11.3561V33.9634C27.0823 32.9885 29.6819 30.3239 31.6224 27.093L32.1052 27.2879C30.7961 32.6079 27.9551 36.5815 23.0344 38.1784C20.1545 39.0124 17.1155 39.1367 14.1771 38.5405C11.7097 38.0407 9.39635 36.962 7.42745 35.3932C5.92807 34.1918 4.70443 32.6822 3.83943 30.9666C2.97443 29.251 2.48828 27.3695 2.41392 25.4497C2.31423 23.9232 2.43936 22.3904 2.78529 20.9003C3.37373 18.4579 4.51037 16.1815 6.10908 14.2435C7.60406 12.4354 9.32666 10.8282 11.234 9.46207C8.95506 8.93683 6.56803 9.15147 4.41933 10.0748C2.95627 10.8891 1.72088 12.0575 0.826304 13.4729C0.714892 13.64 0.519921 14.0021 0.399225 14.03C0.266839 14.047 0.133035 14.0501 0 14.0392C0.133362 12.5647 0.573009 11.1342 1.29082 9.83923C2.00863 8.54429 2.98881 7.41342 4.16866 6.51894C6.93655 4.71608 10.2439 3.92862 13.5272 4.29071C17.9837 4.57852 21.6974 5.92475 25.8661 6.53751C26.7476 6.70296 27.6491 6.73426 28.54 6.63036C30.2297 6.37039 31.0375 5.3027 31.7895 4.04932C31.8081 4.04003 31.7988 4.0029 31.8266 4.0029ZM7.55743 19.9069C7.13035 25.0968 8.94079 28.6342 11.5961 30.9367C12.1137 30.4918 12.534 29.945 12.8309 29.3305C13.1194 28.5372 13.2488 27.6949 13.2116 26.8516V9.76845C13.0023 9.75183 12.7945 9.72081 12.5895 9.67561C9.68631 12.3327 7.8898 15.9854 7.55743 19.9069ZM18.4201 10.6783V17.3445C18.53 19.513 18.4585 21.6869 18.2065 23.8435C17.5195 27.65 15.0963 29.6647 12.7381 31.763C14.7156 33.5363 17.8166 34.4647 21.6696 34.1769V11.2539C20.5833 11.0497 19.5342 10.8083 18.4386 10.6133C18.4294 10.604 18.4108 10.6412 18.4201 10.6783Z" fill="white"/>
<path fill-rule="evenodd" clip-rule="evenodd" d="M36.8773 5.49765C37.2781 5.45652 37.6809 5.55384 38.0188 5.77343C38.3566 5.99301 38.609 6.32162 38.7342 6.70461C39.3005 8.1901 38.9291 10.5762 37.6851 11.1054C37.2535 11.2755 36.7786 11.3023 36.3306 11.182C35.8826 11.0616 35.4851 10.8004 35.1969 10.4369C34.8448 9.84299 34.6768 9.15803 34.7141 8.46863C34.7141 6.82531 35.1504 5.49765 36.8773 5.49765Z" fill="white"/>
<path fill-rule="evenodd" clip-rule="evenodd" d="M44.7411 14.3177C45.0526 13.5771 45.5597 12.9352 46.2081 12.4608C46.5383 12.3002 46.9067 12.2342 47.2721 12.2703C47.6376 12.3063 47.986 12.443 48.2785 12.6651C48.7672 13.0733 49.1468 13.5965 49.3833 14.1877C50.4429 17.1451 50.6362 20.3435 49.9404 23.407C49.841 24.0551 49.6103 24.676 49.2622 25.2316C48.9141 25.7872 48.4562 26.2658 47.9164 26.6379C47.5422 26.8188 47.1227 26.8845 46.7111 26.8267C46.2995 26.7688 45.9144 26.59 45.6046 26.313C45.084 25.7285 44.7255 25.0179 44.5647 24.2519V26.8608C43.0949 26.6364 41.613 26.5 40.1268 26.4523V25.7838H40.9531V6.92736H40.1083V6.27745C41.6029 6.22178 43.0918 6.06358 44.5647 5.80396C44.7226 5.80396 44.704 5.80395 44.7133 5.98036C44.7969 7.3173 44.7133 8.70066 44.7133 10.019L44.7411 14.3177ZM44.7411 16.518V22.8128C44.7566 23.2974 44.8188 23.7793 44.9268 24.2519C45.0197 24.6511 45.2239 25.1803 45.6232 25.1803C46.0224 25.1803 46.0781 24.5675 46.1338 24.1498C46.2544 22.6364 46.2823 21.1172 46.2174 19.6004V16.4623C46.2283 15.9632 46.2066 15.4639 46.1524 14.9676C46.0688 14.4291 45.9574 13.9463 45.521 14.0391C44.8154 14.197 44.7969 15.7103 44.7597 16.518H44.7411Z" fill="white"/>
<path fill-rule="evenodd" clip-rule="evenodd" d="M119.072 11.9873C119.118 13.6771 119.155 15.4689 119.164 17.1308H118.839C118.54 15.7001 117.867 14.3741 116.89 13.2871C116.379 12.8322 115.209 12.3587 114.847 13.2221C114.7 13.5859 114.663 13.9847 114.741 14.3692C114.819 14.7537 115.007 15.107 115.284 15.3854C115.478 15.5525 115.738 15.6825 115.952 15.831C116.646 16.2551 117.302 16.7398 117.911 17.2794C118.698 18.0875 119.225 19.1125 119.424 20.2225C119.657 21.573 119.638 22.9547 119.369 24.2983C119.301 24.8634 119.087 25.4012 118.749 25.8586C118.41 26.3161 117.958 26.6775 117.437 26.9072C117.121 27.0213 116.789 27.0901 116.453 27.1115C116.027 27.0807 115.618 26.9293 115.274 26.6751C114.931 26.4708 114.615 26.2944 114.29 26.0623C113.956 26.2944 113.622 26.573 113.278 26.8515C113.184 26.9615 113.062 27.0438 112.924 27.0896C112.787 27.1354 112.64 27.1429 112.498 27.1115C112.498 25.2546 112.396 23.3977 112.405 21.5409H112.665C112.86 22.0886 113.009 22.6364 113.222 23.1471C113.602 24.1266 114.214 24.9995 115.005 25.691C115.209 25.858 115.434 25.9984 115.673 26.1088C115.94 26.2488 116.236 26.3221 116.537 26.3223C116.794 26.2885 117.029 26.1625 117.2 25.9678C117.371 25.7731 117.465 25.5229 117.465 25.2639C117.586 23.9734 116.843 23.5184 116.082 22.9892C115.553 22.6179 115.014 22.2093 114.476 21.8287C114.29 21.7173 114.114 21.5966 113.937 21.4666C113.556 21.1107 113.241 20.6894 113.009 20.2225C112.303 18.4984 112.183 16.5904 112.665 14.7912C112.756 14.272 112.952 13.7768 113.241 13.3362C113.53 12.8955 113.906 12.5186 114.346 12.2287C114.894 12.0247 115.495 12.0084 116.054 12.1823C116.549 12.3491 117.015 12.5902 117.437 12.8972C117.865 12.6094 118.264 12.2937 118.682 11.9688L119.072 11.9873Z" fill="white"/>
<path fill-rule="evenodd" clip-rule="evenodd" d="M85.267 25.9046H86.1304V26.5823H80.9312V25.9231H81.479V16.7038C81.5069 16.1998 81.5069 15.6945 81.479 15.1905C81.479 14.7448 81.3212 14.1971 80.9591 14.1692C80.597 14.1413 80.337 14.6798 80.2349 15.0419C80.1156 15.4824 80.0378 15.9331 80.0028 16.3881C79.9192 17.4001 80.0028 18.5421 80.0028 19.5448V25.9046H80.5784V26.5823H75.3049V25.9231H76.1312V13.1572H75.3421V12.4052C76.9575 12.4052 78.3595 12.1174 79.9842 12.0988C79.9842 12.9808 79.9842 13.9557 79.9842 14.8377C80.4763 13.6586 81.0705 12.1638 82.5467 12.0524C84.4036 11.9038 84.9513 13.5007 85.1649 15.0976C85.2779 16.2669 85.3213 17.4419 85.2949 18.6164L85.267 25.9046Z" fill="white"/>
<path d="M35.4503 32.8668L34.3256 29.6592H34.3066C34.3447 30.1337 34.3447 30.5892 34.3447 31.0067V32.8668H33.7728V29.0328H34.6687L35.7362 32.0886H35.7552L36.8608 29.0328H37.7567V32.8668H37.1468V30.9688C37.1468 30.779 37.1468 30.5322 37.1658 30.2286C37.1849 29.9249 37.1849 29.7351 37.1849 29.6782H37.1658L36.0031 32.8857H35.4503V32.8668Z" fill="white"/>
<path d="M40.5212 32.8663L40.4068 32.4677H40.3877C40.2543 32.6385 40.1018 32.7714 39.9684 32.8283C39.8349 32.8853 39.6443 32.9232 39.4156 32.9232C39.1296 32.9232 38.9009 32.8473 38.7484 32.6955C38.5959 32.5436 38.5006 32.3159 38.5006 32.0502C38.5006 31.7465 38.615 31.5187 38.8437 31.3669C39.0725 31.2151 39.4156 31.1391 39.8731 31.1202L40.3687 31.1012V30.9493C40.3687 30.7595 40.3305 30.6267 40.2352 30.5318C40.1399 30.4369 40.0065 30.3989 39.8349 30.3989C39.6824 30.3989 39.549 30.4179 39.3965 30.4559C39.2631 30.4938 39.1296 30.5508 38.9962 30.6077L38.7865 30.1712C38.939 30.0953 39.1106 30.0193 39.3012 29.9814C39.4918 29.9434 39.6634 29.9244 39.8349 29.9244C40.1971 29.9244 40.483 30.0004 40.6736 30.1712C40.8643 30.323 40.9596 30.5887 40.9596 30.9304V32.8853H40.5212V32.8663ZM39.6062 32.4488C39.8349 32.4488 40.0065 32.3918 40.1399 32.259C40.2733 32.1261 40.3496 31.9553 40.3496 31.7275V31.4808L39.9684 31.4998C39.6824 31.5187 39.4728 31.5567 39.3393 31.6516C39.2059 31.7465 39.1487 31.8794 39.1487 32.0502C39.1487 32.183 39.1868 32.2779 39.2631 32.3539C39.3203 32.4108 39.4346 32.4488 39.6062 32.4488Z" fill="white"/>
<path d="M42.923 32.4107C43.0755 32.4107 43.228 32.3917 43.3805 32.3348V32.7903C43.3043 32.8283 43.228 32.8473 43.1137 32.8662C42.9993 32.8852 42.8849 32.9042 42.7705 32.9042C42.1796 32.9042 41.8937 32.6005 41.8937 31.9742V30.4178H41.4934V30.1521L41.9128 29.9244L42.1224 29.317H42.5037V29.9623H43.3424V30.4368H42.5037V31.9932C42.5037 32.145 42.5418 32.2589 42.618 32.3158C42.6943 32.3728 42.7896 32.4107 42.923 32.4107Z" fill="white"/>
<path d="M45.7826 32.8663L45.6683 32.4677H45.6492C45.5158 32.6385 45.3633 32.7714 45.2298 32.8283C45.0964 32.8853 44.9058 32.9232 44.6771 32.9232C44.3911 32.9232 44.1624 32.8473 44.0099 32.6955C43.8574 32.5436 43.7621 32.3159 43.7621 32.0502C43.7621 31.7465 43.8765 31.5187 44.1052 31.3669C44.3339 31.2151 44.6771 31.1391 45.1345 31.1202L45.6301 31.1012V30.9493C45.6301 30.7595 45.592 30.6267 45.4967 30.5318C45.4014 30.4369 45.268 30.3989 45.0964 30.3989C44.9439 30.3989 44.8105 30.4179 44.658 30.4559C44.5246 30.4938 44.3911 30.5508 44.2577 30.6077L44.048 30.1712C44.2005 30.0953 44.3721 30.0193 44.5627 29.9814C44.7533 29.9434 44.9249 29.9244 45.0964 29.9244C45.4586 29.9244 45.7445 30.0004 45.9351 30.1712C46.1257 30.323 46.221 30.5887 46.221 30.9304V32.8853H45.7826V32.8663ZM44.8486 32.4488C45.0773 32.4488 45.2489 32.3918 45.3823 32.259C45.5158 32.1261 45.592 31.9553 45.592 31.7275V31.4808L45.2108 31.4998C44.9249 31.5187 44.7152 31.5567 44.5817 31.6516C44.4483 31.7465 44.3911 31.8794 44.3911 32.0502C44.3911 32.183 44.4292 32.2779 44.5055 32.3539C44.5817 32.4108 44.6961 32.4488 44.8486 32.4488Z" fill="white"/>
<path d="M48.5463 32.8662V29.0323H49.1753V32.3348H50.8146V32.8662H48.5463Z" fill="white"/>
<path d="M53.9983 31.4046C53.9983 31.8791 53.884 32.2397 53.6362 32.5054C53.3884 32.7711 53.0452 32.904 52.6068 32.904C52.34 32.904 52.0922 32.847 51.8825 32.7142C51.6728 32.6003 51.5203 32.4105 51.4059 32.1827C51.2916 31.955 51.2344 31.6893 51.2344 31.3856C51.2344 30.9111 51.3487 30.5505 51.5965 30.2847C51.8444 30.019 52.1875 29.8862 52.6259 29.8862C53.0452 29.8862 53.3884 30.019 53.6362 30.2847C53.884 30.5505 53.9983 30.949 53.9983 31.4046ZM51.8825 31.4046C51.8825 32.0688 52.1303 32.4105 52.6259 32.4105C53.1215 32.4105 53.3693 32.0688 53.3693 31.4046C53.3693 30.7403 53.1215 30.4176 52.6259 30.4176C52.359 30.4176 52.1684 30.5125 52.054 30.6833C51.9397 30.8541 51.8825 31.0819 51.8825 31.4046Z" fill="white"/>
<path d="M55.3142 31.3289L55.6573 30.8924L56.5342 29.9624H57.2395L56.0576 31.215L57.2966 32.8663H56.5723L55.6383 31.5946L55.2952 31.8793V32.8663H54.6852V28.7856H55.2952V30.7785L55.3142 31.3289Z" fill="white"/>
<path d="M59.6214 32.8663L59.5071 32.4677H59.488C59.3546 32.6385 59.2021 32.7714 59.0687 32.8283C58.9352 32.8853 58.7446 32.9232 58.5159 32.9232C58.2299 32.9232 58.0012 32.8473 57.8487 32.6955C57.6962 32.5436 57.6009 32.3159 57.6009 32.0502C57.6009 31.7465 57.7153 31.5187 57.944 31.3669C58.1727 31.2151 58.5159 31.1391 58.9733 31.1202L59.469 31.1012V30.9493C59.469 30.7595 59.4308 30.6267 59.3355 30.5318C59.2402 30.4369 59.1068 30.3989 58.9352 30.3989C58.7827 30.3989 58.6493 30.4179 58.4968 30.4559C58.3634 30.4938 58.2299 30.5508 58.0965 30.6077L57.8868 30.1712C58.0393 30.0953 58.2109 30.0193 58.4015 29.9814C58.5921 29.9434 58.7637 29.9244 58.9352 29.9244C59.2974 29.9244 59.5833 30.0004 59.7739 30.1712C59.9646 30.323 60.0599 30.5887 60.0599 30.9304V32.8853H59.6214V32.8663ZM58.7065 32.4488C58.9352 32.4488 59.1068 32.3918 59.2402 32.259C59.3736 32.1261 59.4499 31.9553 59.4499 31.7275V31.4808L59.0687 31.4998C58.7827 31.5187 58.573 31.5567 58.4396 31.6516C58.3062 31.7465 58.249 31.8794 58.249 32.0502C58.249 32.183 58.2871 32.2779 58.3634 32.3539C58.4206 32.4108 58.5349 32.4488 58.7065 32.4488Z" fill="white"/>
<path d="M61.5461 32.8663H60.9361V28.7856H61.5461V32.8663Z" fill="white"/>
<path d="M65.5693 32.8662L64.4446 29.6586H64.4256C64.4637 30.1331 64.4637 30.5886 64.4637 31.0062V32.8662H63.8918V29.0323H64.7877L65.8552 32.088H65.8743L66.9798 29.0323H67.8757V32.8662H67.2658V30.9682C67.2658 30.7784 67.2658 30.5317 67.2848 30.228C67.3039 29.9243 67.3039 29.7345 67.3039 29.6776H67.2848L66.1221 32.8852H65.5693V32.8662Z" fill="white"/>
<path d="M70.0861 32.9232C69.6287 32.9232 69.2856 32.7904 69.0187 32.5247C68.7709 32.259 68.6375 31.8983 68.6375 31.4428C68.6375 30.9683 68.7518 30.5887 68.9996 30.323C69.2284 30.0573 69.5715 29.9244 69.9718 29.9244C70.353 29.9244 70.658 30.0383 70.8867 30.2661C71.1155 30.4938 71.2299 30.8165 71.2299 31.234V31.5757H69.2855C69.2855 31.8604 69.3618 32.0692 69.5143 32.221C69.6668 32.3728 69.8574 32.4488 70.1243 32.4488C70.2958 32.4488 70.4483 32.4298 70.6008 32.3918C70.7533 32.3539 70.9058 32.2969 71.0774 32.221V32.7145C70.9249 32.7904 70.7724 32.8283 70.6199 32.8663C70.4674 32.9043 70.2958 32.9232 70.0861 32.9232ZM69.9718 30.38C69.7812 30.38 69.6096 30.4369 69.4952 30.5698C69.3809 30.7026 69.3046 30.8734 69.2855 31.1202H70.6008C70.6008 30.8734 70.5436 30.7026 70.4293 30.5698C70.3339 30.4369 70.1815 30.38 69.9718 30.38Z" fill="white"/>
<path d="M74.4904 32.8662H73.8614V31.0821C73.8614 30.8544 73.8232 30.6836 73.7279 30.5887C73.6326 30.4748 73.4992 30.4178 73.2895 30.4178C73.0226 30.4178 72.832 30.4938 72.7176 30.6456C72.6033 30.7974 72.527 31.0632 72.527 31.4238V32.8662H71.9171V29.9623H72.3936L72.4889 30.3419H72.527C72.6223 30.2091 72.7367 30.0952 72.9083 30.0193C73.0608 29.9434 73.2514 29.9054 73.442 29.9054C74.1473 29.9054 74.4904 30.266 74.4904 30.9683V32.8662Z" fill="white"/>
<path d="M75.0612 34.1567C74.8706 34.1567 74.7181 34.1377 74.6037 34.0998V33.6063C74.7181 33.6442 74.8515 33.6442 74.9659 33.6442C75.2327 33.6442 75.3662 33.4924 75.3662 33.1887V29.9432H75.9762V33.2267C75.9762 33.5304 75.8999 33.7581 75.7474 33.91C75.5759 34.0808 75.3471 34.1567 75.0612 34.1567ZM75.3281 29.184C75.3281 29.0701 75.3662 28.9942 75.4234 28.9372C75.4805 28.8803 75.5759 28.8423 75.6902 28.8423C75.8046 28.8423 75.8809 28.8803 75.938 28.9372C75.9952 28.9942 76.0333 29.0891 76.0333 29.184C76.0333 29.2979 75.9952 29.3738 75.938 29.4307C75.8809 29.4877 75.7855 29.5256 75.6902 29.5256C75.5759 29.5256 75.4996 29.4877 75.4234 29.4307C75.3471 29.3738 75.3281 29.2979 75.3281 29.184Z" fill="white"/>
<path d="M78.6817 32.8663L78.5673 32.4677H78.5482C78.4148 32.6385 78.2623 32.7714 78.1289 32.8283C77.9955 32.8853 77.8048 32.9232 77.5761 32.9232C77.2902 32.9232 77.0614 32.8473 76.9089 32.6955C76.7564 32.5436 76.6611 32.3159 76.6611 32.0502C76.6611 31.7465 76.7755 31.5187 77.0042 31.3669C77.233 31.2151 77.5761 31.1391 78.0336 31.1202L78.5292 31.1012V30.9493C78.5292 30.7595 78.4911 30.6267 78.3958 30.5318C78.3004 30.4369 78.167 30.3989 77.9955 30.3989C77.843 30.3989 77.7095 30.4179 77.557 30.4559C77.4236 30.4938 77.2902 30.5508 77.1567 30.6077L76.9471 30.1712C77.0996 30.0953 77.2711 30.0193 77.4617 29.9814C77.6523 29.9434 77.8239 29.9244 77.9955 29.9244C78.3576 29.9244 78.6436 30.0004 78.8342 30.1712C79.0248 30.323 79.1201 30.5887 79.1201 30.9304V32.8853H78.6817V32.8663ZM77.7667 32.4488C77.9955 32.4488 78.167 32.3918 78.3004 32.259C78.4339 32.1261 78.5101 31.9553 78.5101 31.7275V31.4808L78.1289 31.4998C77.843 31.5187 77.6333 31.5567 77.4999 31.6516C77.3664 31.7465 77.3092 31.8794 77.3092 32.0502C77.3092 32.183 77.3474 32.2779 77.4236 32.3539C77.4999 32.4108 77.6142 32.4488 77.7667 32.4488Z" fill="white"/>
<path d="M82.5526 32.8662H81.9236V31.0821C81.9236 30.8544 81.8855 30.6836 81.7902 30.5887C81.6949 30.4748 81.5614 30.4178 81.3517 30.4178C81.0849 30.4178 80.8943 30.4938 80.7799 30.6456C80.6655 30.7974 80.5893 31.0632 80.5893 31.4238V32.8662H79.9793V29.9623H80.4558L80.5512 30.3419H80.5893C80.6846 30.2091 80.799 30.0952 80.9705 30.0193C81.123 29.9434 81.3136 29.9054 81.5042 29.9054C82.2095 29.9054 82.5526 30.266 82.5526 30.9683V32.8662Z" fill="white"/>
<path d="M85.8879 29.9621V30.3037L85.3923 30.3986C85.4304 30.4556 85.4685 30.5315 85.5066 30.6264C85.5448 30.7213 85.5448 30.8162 85.5448 30.9111C85.5448 31.2148 85.4495 31.4425 85.2398 31.6133C85.0301 31.7842 84.7442 31.879 84.382 31.879C84.2867 31.879 84.2104 31.8791 84.1342 31.8601C84.0008 31.936 83.9245 32.0309 83.9245 32.1448C83.9245 32.2207 83.9626 32.2586 84.0198 32.2966C84.077 32.3346 84.1914 32.3535 84.3629 32.3535H84.8776C85.2017 32.3535 85.4495 32.4295 85.602 32.5623C85.7735 32.6952 85.8498 32.904 85.8498 33.1507C85.8498 33.4734 85.7163 33.7391 85.4495 33.9099C85.1826 34.0807 84.7823 34.1756 84.2676 34.1756C83.8673 34.1756 83.5623 34.0997 83.3527 33.9668C83.143 33.834 83.0477 33.6252 83.0477 33.3595C83.0477 33.1887 83.1049 33.0368 83.2192 32.904C83.3336 32.7901 83.4861 32.6952 83.6958 32.6572C83.6195 32.6193 83.5433 32.5623 83.4861 32.4864C83.4289 32.4105 83.4098 32.3346 83.4098 32.2397C83.4098 32.1258 83.448 32.0309 83.5052 31.955C83.5623 31.8791 83.6576 31.8031 83.772 31.7272C83.6195 31.6703 83.5052 31.5564 83.4098 31.4046C83.3145 31.2527 83.2764 31.0819 83.2764 30.8921C83.2764 30.5694 83.3717 30.3417 83.5814 30.1519C83.772 29.9811 84.0579 29.8862 84.4392 29.8862C84.5154 29.8862 84.6107 29.8862 84.7061 29.9052C84.8014 29.9241 84.8585 29.9241 84.9157 29.9431H85.8879V29.9621ZM83.5814 33.3215C83.5814 33.4544 83.6386 33.5493 83.753 33.6252C83.8673 33.7011 84.0389 33.7391 84.2676 33.7391C84.6107 33.7391 84.8585 33.6821 85.0301 33.5872C85.2017 33.4923 85.2779 33.3595 85.2779 33.2076C85.2779 33.0748 85.2398 32.9989 85.1445 32.9419C85.0492 32.885 84.8776 32.866 84.6489 32.866H84.1723C84.0008 32.866 83.8483 32.904 83.753 32.9989C83.6386 33.0558 83.5814 33.1697 83.5814 33.3215ZM83.8483 30.8921C83.8483 31.0819 83.8864 31.2148 83.9817 31.3097C84.077 31.4046 84.2104 31.4615 84.382 31.4615C84.7442 31.4615 84.9157 31.2717 84.9157 30.8921C84.9157 30.7023 84.8776 30.5505 84.7823 30.4556C84.687 30.3607 84.5536 30.3037 84.382 30.3037C84.2104 30.3037 84.0579 30.3607 83.9817 30.4556C83.9055 30.5505 83.8483 30.7023 83.8483 30.8921Z" fill="white"/>
<path d="M87.0141 31.3289L87.3572 30.8924L88.2341 29.9624H88.9394L87.7575 31.215L88.9965 32.8663H88.2722L87.3382 31.5946L86.9951 31.8793V32.8663H86.3851V28.7856H86.9951V30.7785L87.0141 31.3289Z" fill="white"/>
<path d="M91.3399 32.8663L91.2255 32.4677H91.2065C91.073 32.6385 90.9205 32.7714 90.7871 32.8283C90.6537 32.8853 90.4631 32.9232 90.2343 32.9232C89.9484 32.9232 89.7196 32.8473 89.5671 32.6955C89.4146 32.5436 89.3193 32.3159 89.3193 32.0502C89.3193 31.7465 89.4337 31.5187 89.6625 31.3669C89.8912 31.2151 90.2343 31.1391 90.6918 31.1202L91.1874 31.1012V30.9493C91.1874 30.7595 91.1493 30.6267 91.054 30.5318C90.9587 30.4369 90.8252 30.3989 90.6537 30.3989C90.5012 30.3989 90.3677 30.4179 90.2152 30.4559C90.0818 30.4938 89.9484 30.5508 89.8149 30.6077L89.6053 30.1712C89.7578 30.0953 89.9293 30.0193 90.1199 29.9814C90.3106 29.9434 90.4821 29.9244 90.6537 29.9244C91.0158 29.9244 91.3018 30.0004 91.4924 30.1712C91.683 30.323 91.7783 30.5887 91.7783 30.9304V32.8853H91.3399V32.8663ZM90.4059 32.4488C90.6346 32.4488 90.8062 32.3918 90.9396 32.259C91.073 32.1261 91.1493 31.9553 91.1493 31.7275V31.4808L90.768 31.4998C90.4821 31.5187 90.2724 31.5567 90.139 31.6516C90.0056 31.7465 89.9484 31.8794 89.9484 32.0502C89.9484 32.183 89.9865 32.2779 90.0627 32.3539C90.139 32.4108 90.2534 32.4488 90.4059 32.4488Z" fill="white"/>
<path d="M94.6959 32.866L94.6006 32.4864H94.5815C94.4862 32.6193 94.3719 32.7331 94.2194 32.8091C94.0669 32.885 93.8763 32.9229 93.6666 32.9229C93.3044 32.9229 93.0566 32.828 92.885 32.6572C92.7135 32.4864 92.6182 32.2207 92.6182 31.8601V29.9621H93.2472V31.7462C93.2472 31.974 93.2853 32.1258 93.3806 32.2397C93.476 32.3536 93.6094 32.4105 93.8191 32.4105C94.0859 32.4105 94.2766 32.3346 94.3909 32.1827C94.5053 32.0309 94.5815 31.7652 94.5815 31.4046V29.9621H95.2106V32.866H94.6959Z" fill="white"/>
<path d="M97.535 32.8662V29.0323H98.164V32.8662H97.535Z" fill="white"/>
<path d="M101.689 32.8662H101.06V31.0821C101.06 30.8544 101.022 30.6836 100.927 30.5887C100.831 30.4748 100.698 30.4178 100.488 30.4178C100.221 30.4178 100.031 30.4938 99.9164 30.6456C99.8021 30.7974 99.7258 31.0632 99.7258 31.4238V32.8662H99.1158V29.9623H99.5924L99.6877 30.3419H99.7258C99.8211 30.2091 99.9355 30.0952 100.107 30.0193C100.26 29.9434 100.45 29.9054 100.641 29.9054C101.346 29.9054 101.689 30.266 101.689 30.9683V32.8662Z" fill="white"/>
<path d="M103.523 32.923C103.161 32.923 102.875 32.7901 102.665 32.5244C102.455 32.2587 102.36 31.8981 102.36 31.4236C102.36 30.9491 102.455 30.5695 102.665 30.3038C102.875 30.0381 103.161 29.9052 103.523 29.9052C103.904 29.9052 104.19 30.0381 104.4 30.3228H104.438C104.4 30.114 104.4 29.9432 104.4 29.8293V28.7664H105.029V32.8471H104.552L104.438 32.4675H104.4C104.209 32.7712 103.923 32.923 103.523 32.923ZM103.694 32.4105C103.942 32.4105 104.133 32.3346 104.247 32.2018C104.361 32.0499 104.419 31.8222 104.419 31.4995V31.4236C104.419 31.063 104.361 30.7973 104.247 30.6454C104.133 30.4936 103.942 30.4177 103.694 30.4177C103.485 30.4177 103.313 30.5126 103.199 30.6834C103.084 30.8542 103.027 31.1009 103.027 31.4426C103.027 31.7652 103.084 32.012 103.199 32.1828C103.294 32.3346 103.466 32.4105 103.694 32.4105Z" fill="white"/>
<path d="M108.495 31.4046C108.495 31.8791 108.38 32.2397 108.132 32.5054C107.885 32.7711 107.542 32.904 107.103 32.904C106.836 32.904 106.588 32.847 106.379 32.7142C106.169 32.6003 106.017 32.4105 105.902 32.1827C105.788 31.955 105.731 31.6893 105.731 31.3856C105.731 30.9111 105.845 30.5505 106.093 30.2847C106.341 30.019 106.684 29.8862 107.122 29.8862C107.542 29.8862 107.885 30.019 108.132 30.2847C108.38 30.5505 108.495 30.949 108.495 31.4046ZM106.379 31.4046C106.379 32.0688 106.627 32.4105 107.122 32.4105C107.618 32.4105 107.866 32.0688 107.866 31.4046C107.866 30.7403 107.618 30.4176 107.122 30.4176C106.855 30.4176 106.665 30.5125 106.55 30.6833C106.436 30.8541 106.379 31.0819 106.379 31.4046Z" fill="white"/>
<path d="M111.775 32.8662H111.146V31.0821C111.146 30.8544 111.108 30.6836 111.012 30.5887C110.917 30.4748 110.784 30.4178 110.574 30.4178C110.307 30.4178 110.116 30.4938 110.002 30.6456C109.888 30.7974 109.811 31.0632 109.811 31.4238V32.8662H109.201V29.9623H109.678L109.773 30.3419H109.811C109.907 30.2091 110.021 30.0952 110.193 30.0193C110.345 29.9434 110.536 29.9054 110.726 29.9054C111.432 29.9054 111.775 30.266 111.775 30.9683V32.8662Z" fill="white"/>
<path d="M113.909 32.9232C113.452 32.9232 113.108 32.7904 112.842 32.5247C112.575 32.259 112.46 31.8983 112.46 31.4428C112.46 30.9683 112.575 30.5887 112.823 30.323C113.051 30.0573 113.394 29.9244 113.795 29.9244C114.176 29.9244 114.481 30.0383 114.71 30.2661C114.938 30.4938 115.053 30.8165 115.053 31.234V31.5757H113.108C113.108 31.8604 113.185 32.0692 113.337 32.221C113.49 32.3728 113.68 32.4488 113.947 32.4488C114.119 32.4488 114.271 32.4298 114.424 32.3918C114.576 32.3539 114.729 32.2969 114.9 32.221V32.7145C114.748 32.7904 114.595 32.8283 114.443 32.8663C114.29 32.9043 114.1 32.9232 113.909 32.9232ZM113.795 30.38C113.604 30.38 113.432 30.4369 113.318 30.5698C113.204 30.7026 113.127 30.8734 113.108 31.1202H114.424C114.424 30.8734 114.367 30.7026 114.252 30.5698C114.138 30.4369 113.985 30.38 113.795 30.38Z" fill="white"/>
<path d="M117.702 32.0311C117.702 32.3158 117.607 32.5246 117.397 32.6764C117.188 32.8283 116.902 32.9042 116.501 32.9042C116.12 32.9042 115.796 32.8473 115.567 32.7334V32.202C115.91 32.3538 116.234 32.4297 116.52 32.4297C116.902 32.4297 117.092 32.3158 117.092 32.0881C117.092 32.0122 117.073 31.9552 117.035 31.8983C116.997 31.8413 116.921 31.8034 116.825 31.7464C116.73 31.6895 116.597 31.6326 116.425 31.5756C116.082 31.4428 115.853 31.3099 115.739 31.196C115.624 31.0632 115.567 30.8923 115.567 30.6836C115.567 30.4368 115.663 30.247 115.872 30.1142C116.082 29.9813 116.349 29.9054 116.692 29.9054C117.035 29.9054 117.359 29.9813 117.664 30.1142L117.454 30.5697C117.13 30.4368 116.883 30.3799 116.654 30.3799C116.33 30.3799 116.158 30.4748 116.158 30.6646C116.158 30.7595 116.196 30.8354 116.292 30.8923C116.368 30.9493 116.558 31.0442 116.844 31.1581C117.092 31.253 117.264 31.3289 117.378 31.4048C117.493 31.4807 117.569 31.5756 117.626 31.6705C117.683 31.7654 117.702 31.8983 117.702 32.0311Z" fill="white"/>
<path d="M118.331 29.184C118.331 29.0701 118.369 28.9942 118.426 28.9372C118.484 28.8803 118.579 28.8423 118.693 28.8423C118.808 28.8423 118.884 28.8803 118.941 28.9372C118.998 28.9942 119.036 29.0891 119.036 29.184C119.036 29.2979 118.998 29.3738 118.941 29.4307C118.884 29.4877 118.789 29.5256 118.693 29.5256C118.579 29.5256 118.503 29.4877 118.426 29.4307C118.369 29.3738 118.331 29.2979 118.331 29.184ZM118.998 32.8661H118.388V29.9622H118.998V32.8661Z" fill="white"/>
<path d="M121.705 32.8663L121.591 32.4677H121.571C121.438 32.6385 121.286 32.7714 121.152 32.8283C121.019 32.8853 120.828 32.9232 120.599 32.9232C120.313 32.9232 120.085 32.8473 119.932 32.6955C119.78 32.5436 119.684 32.3159 119.684 32.0502C119.684 31.7465 119.799 31.5187 120.027 31.3669C120.256 31.2151 120.599 31.1391 121.057 31.1202L121.552 31.1012V30.9493C121.552 30.7595 121.514 30.6267 121.419 30.5318C121.324 30.4369 121.19 30.3989 121.019 30.3989C120.866 30.3989 120.733 30.4179 120.58 30.4559C120.447 30.4938 120.313 30.5508 120.18 30.6077L119.97 30.1712C120.123 30.0953 120.294 30.0193 120.485 29.9814C120.676 29.9434 120.847 29.9244 121.019 29.9244C121.381 29.9244 121.667 30.0004 121.857 30.1712C122.048 30.323 122.143 30.5887 122.143 30.9304V32.8853H121.705V32.8663ZM120.771 32.4488C121 32.4488 121.171 32.3918 121.305 32.259C121.438 32.1261 121.514 31.9553 121.514 31.7275V31.4808L121.133 31.4998C120.847 31.5187 120.637 31.5567 120.504 31.6516C120.371 31.7465 120.313 31.8794 120.313 32.0502C120.313 32.183 120.352 32.2779 120.428 32.3539C120.504 32.4108 120.618 32.4488 120.771 32.4488Z" fill="white"/>
<path fill-rule="evenodd" clip-rule="evenodd" d="M95.7866 20.4549H90.708C90.708 22.1446 90.6523 24.1686 91.2558 25.292C91.3321 25.4566 91.4442 25.6021 91.584 25.7178C91.7237 25.8334 91.8876 25.9164 92.0636 25.9605C92.1876 26.0043 92.3149 26.0384 92.4442 26.0626C92.8247 26.0305 93.192 25.9074 93.5151 25.7039C93.8382 25.5003 94.1078 25.2222 94.3011 24.8928C94.7294 24.2743 95.07 23.5994 95.3131 22.8874C95.4152 23.0359 95.6102 23.1195 95.6194 23.2866C95.5871 23.4283 95.5306 23.5634 95.4523 23.6858C94.7096 25.3199 93.8461 27.1118 91.5808 27.1118C90.6448 27.1317 89.7315 26.8229 88.9997 26.239C87.7021 24.9975 86.9282 23.3069 86.8365 21.5133C86.5757 19.4625 86.7722 17.3794 87.4121 15.4135C87.9877 13.8166 88.9069 12.1826 90.9866 12.0433C91.4305 12.0107 91.8763 12.0715 92.2953 12.2218C92.7143 12.3722 93.0971 12.6086 93.4191 12.916C93.993 13.4716 94.4479 14.1381 94.756 14.875C95.4993 16.6385 95.8509 18.5423 95.7866 20.4549ZM92.0728 14.1694C92.0728 13.5938 91.98 12.9439 91.6086 12.7675C90.9309 12.4425 90.8009 13.5288 90.7545 14.1137C90.6152 15.887 90.7545 18.0688 90.7545 19.7493H92.1193C91.9986 17.9946 92.1193 16.0356 92.0636 14.1787L92.0728 14.1694Z" fill="white"/>
<path fill-rule="evenodd" clip-rule="evenodd" d="M28.9015 12.2939V15.1999C29.4307 13.928 29.9506 12.2104 31.7703 12.4146C32.0755 12.4538 32.361 12.5868 32.5873 12.7953C33.785 13.928 33.915 17.4374 32.7266 18.6444C32.5907 18.7765 32.4291 18.8793 32.2518 18.9464C32.0745 19.0135 31.8854 19.0434 31.696 19.0343C31.4673 19.0049 31.247 18.9288 31.0489 18.8106C30.8509 18.6924 30.6792 18.5347 30.5448 18.3473C30.0684 17.5946 29.8411 16.7111 29.8949 15.822C29.9115 15.5389 29.9425 15.2569 29.9877 14.9771C29.9877 14.7264 30.0991 14.3922 29.8577 14.2529C29.5235 14.4479 29.4399 14.8935 29.3564 15.2835C29.1134 16.712 29.0232 18.1623 29.0871 19.61V25.7376H30.2198V26.4061H24.3336V25.7376H25.132V13.343H24.315V12.6374C25.8562 12.526 27.3695 12.396 28.9015 12.2939Z" fill="white"/>
<path fill-rule="evenodd" clip-rule="evenodd" d="M38.8081 12.2939C38.8916 16.704 38.8081 21.2626 38.8081 25.7376H39.7365V26.4061H34.1659V25.7376H34.9644C35.0108 21.6525 34.9644 17.4838 34.9644 13.3616H34.0731V12.6189C35.7721 12.6282 37.2483 12.4239 38.8081 12.2939Z" fill="white"/>
<path fill-rule="evenodd" clip-rule="evenodd" d="M57.0985 13.3801H56.235V12.6373C57.8691 12.6373 59.2617 12.3588 60.8772 12.3495V25.756H61.8056V26.4245C60.2841 26.46 58.767 26.6027 57.2656 26.8516V24.1313C56.6621 25.3568 56.0865 26.6938 54.4803 26.833C52.6791 27.0001 52.1592 25.5704 51.89 24.0477C51.6673 22.3149 51.5928 20.5662 51.6672 18.8207V13.3801H50.878V12.6373C52.3805 12.6079 53.8805 12.4994 55.3716 12.3124C55.483 12.3124 55.5294 12.2195 55.548 12.4423C55.6223 13.3708 55.548 14.5777 55.548 15.4597V23.5371C55.548 24.1777 55.548 25.0226 56.2536 24.874C56.9592 24.7255 57.0242 23.3143 57.0613 22.5994C57.1263 21.4945 57.0613 20.4176 57.0613 19.5263L57.0985 13.3801Z" fill="white"/>
<path fill-rule="evenodd" clip-rule="evenodd" d="M72.4173 25.7561H73.2807V26.4245H68.0722V25.7561H68.5922V15.4134C68.5922 14.9491 68.4715 14.3921 68.0908 14.3549C67.7102 14.3178 67.4502 14.8192 67.3481 15.1627C67.0685 16.6275 66.978 18.122 67.0788 19.6099V25.8025H67.6545V26.471H62.4088V25.8025H63.198V13.3801H62.4088V12.6373C64.0336 12.6373 65.4262 12.3495 67.051 12.3495V14.9677C67.543 13.7793 68.1001 12.5166 69.4835 12.2753C70.0263 12.1833 70.5841 12.2922 71.0525 12.5816C71.7505 13.2172 72.1734 14.0997 72.2316 15.042C72.3862 16.1957 72.4483 17.36 72.4173 18.5236V25.7561Z" fill="white"/>
<path fill-rule="evenodd" clip-rule="evenodd" d="M96.4642 12.4052H101.663V13.1572H101.144C101.784 16.3417 102.453 19.4891 103.121 22.6365C103.335 21.6152 103.548 20.5939 103.752 19.5448C103.798 19.4059 103.829 19.2628 103.845 19.1177C103.811 18.8665 103.759 18.6182 103.687 18.375C103.335 16.6481 103 14.8655 102.657 13.1572H101.97V12.4052H107.364V13.1572H106.436C107.048 16.2303 107.689 19.2848 108.292 22.3486C108.71 20.4082 109.156 18.1893 109.574 16.1189C109.763 15.3888 109.848 14.6353 109.824 13.8814C109.824 13.4357 109.657 13.0922 109.109 13.1572V12.4052H111.561V13.1572C111.435 13.1633 111.312 13.1948 111.198 13.25C110.4 13.6585 110.27 15.2276 110.019 16.2303C109.332 19.6748 108.636 23.2492 107.949 26.6009H105.349C104.904 24.5305 104.477 22.4508 104.05 20.3618C103.585 22.4136 103.177 24.5305 102.74 26.6009H99.9551C99.0267 22.1073 98.0983 17.6508 97.1698 13.1572H96.39V12.4609C96.39 12.4609 96.4457 12.4052 96.4642 12.4052Z" fill="white"/>
<path fill-rule="evenodd" clip-rule="evenodd" d="M125.932 19.9348V20.9746C125.852 20.9616 125.775 20.9298 125.71 20.8818C125.473 20.7279 125.2 20.6391 124.918 20.6245C124.636 20.6098 124.355 20.6697 124.103 20.7982C122.859 21.6338 122.841 25.3568 124.735 25.3754C125.163 25.3565 125.578 25.2182 125.932 24.9762V26.0067C125.533 26.2393 125.076 26.3516 124.615 26.3302C124.154 26.3088 123.708 26.1545 123.333 25.886C122.107 24.809 122.154 21.5781 123.24 20.3154C123.561 19.9341 124.01 19.6831 124.503 19.6098C125 19.5808 125.496 19.6935 125.932 19.9348Z" fill="white"/>
<path fill-rule="evenodd" clip-rule="evenodd" d="M128.403 19.749C128.697 19.7301 128.992 19.7777 129.266 19.8883C131.123 20.7331 131.021 25.4589 129.173 26.3316C128.869 26.4582 128.537 26.5017 128.211 26.4576C127.884 26.4136 127.576 26.2836 127.316 26.0809C126.184 25.1525 126.146 21.8937 127.047 20.5753C127.193 20.3417 127.392 20.1454 127.627 20.002C127.862 19.8586 128.128 19.772 128.403 19.749ZM128.022 20.7981C126.88 21.3923 126.815 25.0318 128.133 25.4403C128.373 25.5054 128.627 25.5054 128.867 25.4403C129.869 25.0318 130.083 22.3858 129.452 21.2716C129.342 21.0667 129.172 20.901 128.964 20.7978C128.756 20.6946 128.52 20.659 128.291 20.696C128.197 20.7158 128.106 20.7503 128.022 20.7981Z" fill="white"/>
<path fill-rule="evenodd" clip-rule="evenodd" d="M134.483 21.1233C134.634 20.7049 134.861 20.3177 135.152 19.9814C135.366 19.8043 135.642 19.7194 135.919 19.7455C136.196 19.7717 136.451 19.9066 136.628 20.1206C136.671 20.1719 136.709 20.2279 136.739 20.2878C136.986 21.2481 137.059 22.245 136.953 23.2309V26.369H136.025V21.829C136.025 21.374 136.025 20.687 135.662 20.6684C135.3 20.6498 135.143 21.1048 135.031 21.3183C134.958 21.4602 134.893 21.6058 134.836 21.7547C134.75 21.8877 134.681 22.0313 134.632 22.1818C134.604 22.5309 134.604 22.8817 134.632 23.2309V26.369H133.703V21.829C133.703 21.3555 133.703 20.687 133.36 20.6684C133.016 20.6498 132.673 21.439 132.534 21.7547C132.45 21.8878 132.385 22.0314 132.339 22.1818C132.311 22.5309 132.311 22.8817 132.339 23.2309V26.369H131.41V19.87H132.199C132.223 20.2689 132.223 20.6688 132.199 21.0676C132.534 20.5477 132.682 19.7957 133.443 19.7493C134.205 19.7028 134.474 20.297 134.483 21.1233Z" fill="white"/>
<path fill-rule="evenodd" clip-rule="evenodd" d="M120.696 23.7413C122.023 23.4906 122.126 25.9324 121.076 26.2017C120.399 26.3874 119.972 25.7189 119.916 25.1804C119.888 24.9565 119.908 24.7293 119.974 24.5134C120.039 24.2975 120.149 24.0978 120.297 23.927C120.413 23.834 120.55 23.7703 120.696 23.7413Z" fill="white"/>
<line x1="153.5" y1="2.18557e-08" x2="153.5" y2="44" stroke="white"/>
<path fill-rule="evenodd" clip-rule="evenodd" d="M200.746 5C200.866 5.06024 201.047 5.06024 201.167 5.12048C200.746 10.1805 197.613 12.7105 191.891 12.3491C191.891 19.8789 191.891 27.3485 191.891 34.8783C196.047 33.9145 198.637 31.264 200.565 28.0111C200.746 28.0714 200.866 28.1316 201.047 28.1919C199.782 33.4326 196.951 37.4686 192.071 39.095C189.602 39.8781 186.108 40.0588 183.216 39.4565C180.506 38.9143 178.277 37.7698 176.47 36.2638C173.759 34.035 171.771 30.9628 171.47 26.3245C171.289 24.8185 171.41 23.2523 171.711 21.8668C172.313 19.2163 173.578 17.0477 175.024 15.2406C176.53 13.3732 178.277 11.8672 180.204 10.4817C177.855 9.9998 175.205 10.1805 173.397 11.0841C171.891 11.8672 170.747 13.072 169.843 14.4575C169.723 14.6382 169.542 14.9996 169.422 14.9996C169.301 15.0598 169.12 14.9996 169 14.9996C169.482 11.6262 170.867 9.15646 173.156 7.53002C175.385 5.90358 178.578 5.06024 182.493 5.30119C186.951 5.60239 190.626 6.92763 194.782 7.53002C195.686 7.6505 196.589 7.77097 197.433 7.59026C199.119 7.3493 199.963 6.26501 200.746 5C200.685 5 200.685 5 200.746 5ZM176.53 20.8427C176.108 26.0233 177.915 29.5171 180.566 31.8062C181.048 31.3243 181.469 30.8424 181.771 30.1797C182.072 29.5171 182.132 28.6738 182.132 27.7099C182.132 22.0475 182.132 16.2646 182.132 10.6624C181.891 10.6624 181.71 10.6022 181.53 10.6022C179.06 13.1322 176.891 16.2646 176.53 20.8427ZM187.373 11.6262C187.373 13.7948 187.373 16.0839 187.373 18.2525C187.373 20.4813 187.493 22.7704 187.132 24.698C186.469 28.493 184.06 30.4809 181.71 32.5893C183.698 34.3362 186.77 35.3 190.626 34.9988C190.626 27.4088 190.626 19.7585 190.626 12.1684C189.541 12.0479 188.457 11.807 187.373 11.6262C187.373 11.6262 187.373 11.566 187.373 11.6262Z" fill="white"/>
<path fill-rule="evenodd" clip-rule="evenodd" d="M205.746 6.50616C206.709 6.50616 207.312 6.92783 207.613 7.71094C208.155 9.2169 207.794 11.5662 206.589 12.1084C205.685 12.4698 204.541 12.1084 204.119 11.4457C203.758 10.9638 203.637 10.241 203.637 9.51809C203.637 7.83141 204.059 6.50616 205.746 6.50616Z" fill="white"/>
<path fill-rule="evenodd" clip-rule="evenodd" d="M213.637 15.301C214.058 14.6384 214.36 13.8553 215.083 13.4336C215.745 13.0722 216.649 13.2529 217.131 13.6144C217.613 13.9758 217.974 14.5782 218.215 15.1203C219.239 17.4094 219.48 21.3851 218.757 24.3368C218.456 25.7223 217.733 27.0476 216.769 27.5295C215.986 27.9511 214.962 27.7102 214.48 27.2283C213.938 26.6861 213.697 25.9633 213.516 25.1199C213.456 25.9633 213.516 26.8668 213.516 27.7102C212.071 27.5295 210.685 27.2885 209.119 27.2885C209.119 27.0476 209.119 26.8668 209.119 26.6259C209.42 26.6259 209.661 26.6259 209.962 26.6259C210.022 20.4213 209.962 14.0963 209.962 7.83146C209.661 7.83146 209.42 7.83146 209.119 7.83146C209.119 7.5905 209.119 7.40978 209.119 7.16883C210.685 7.10859 212.251 6.92788 213.577 6.74716C213.757 6.74716 213.697 6.74716 213.697 6.92788C213.757 8.25313 213.697 9.63861 213.697 10.9639C213.637 12.5301 213.637 13.9156 213.637 15.301ZM213.637 17.4696C213.577 18.3732 213.637 19.4575 213.637 20.602C213.637 21.6261 213.637 22.7104 213.637 23.7344C213.637 24.1561 213.697 24.6983 213.818 25.1802C213.938 25.6018 214.119 26.0837 214.54 26.0837C214.902 26.0235 214.962 25.4814 215.022 25.0597C215.203 23.6742 215.143 21.9875 215.143 20.5418C215.143 19.578 215.143 18.6142 215.143 17.4696C215.143 16.9275 215.143 16.5058 215.083 16.0239C215.022 15.4818 214.902 14.9998 214.48 15.0601C213.697 15.1806 213.697 16.6865 213.637 17.4696Z" fill="white"/>
<path fill-rule="evenodd" clip-rule="evenodd" d="M197.794 13.2529C197.794 14.2167 197.794 15.1805 197.794 16.1444C198.336 14.8793 198.818 13.1324 200.685 13.3734C200.987 13.4336 201.288 13.5541 201.469 13.7348C202.673 14.8793 202.794 18.3732 201.589 19.5779C201.348 19.8189 200.987 19.9996 200.565 19.9996C200.083 19.9394 199.661 19.6382 199.42 19.337C198.939 18.7346 198.758 17.7106 198.758 16.807C198.758 16.566 198.818 16.2648 198.878 15.9636C198.878 15.7227 198.999 15.3612 198.758 15.2408C198.457 15.4215 198.336 15.9034 198.276 16.2648C197.975 17.4696 198.035 19.0358 198.035 20.602C198.035 22.6501 198.035 24.7585 198.035 26.7463C198.396 26.8066 198.818 26.7463 199.18 26.7463C199.18 26.9873 199.18 27.168 199.18 27.409C197.252 27.409 195.264 27.409 193.336 27.409C193.336 27.168 193.336 26.9873 193.336 26.7463C193.577 26.7463 193.879 26.7463 194.119 26.7463C194.18 22.6501 194.119 18.4937 194.119 14.3974C193.879 14.3974 193.577 14.3974 193.336 14.3974C193.336 14.1565 193.336 13.9155 193.336 13.6746C194.782 13.4939 196.288 13.3734 197.794 13.2529Z" fill="white"/>
<path fill-rule="evenodd" clip-rule="evenodd" d="M207.673 13.2529C207.733 17.6503 207.673 22.1682 207.733 26.6259C207.974 26.6861 208.336 26.6259 208.637 26.6259C208.637 26.8668 208.637 27.0475 208.637 27.2885C206.77 27.2885 204.902 27.2885 203.035 27.2885C203.035 27.0475 203.035 26.8668 203.035 26.6259C203.276 26.6259 203.577 26.6259 203.818 26.6259C203.878 22.5296 203.818 18.3732 203.818 14.277C203.577 14.277 203.276 14.277 203.035 14.277C203.035 14.036 203.035 13.795 203.035 13.5541C204.661 13.6143 206.167 13.3734 207.673 13.2529Z" fill="white"/>
<path fill-rule="evenodd" clip-rule="evenodd" d="M225.925 14.3372C225.624 14.3372 225.323 14.3372 225.082 14.3372C225.082 14.0962 225.082 13.8553 225.082 13.6143C226.709 13.6143 228.094 13.3131 229.72 13.3131C229.72 17.7708 229.72 22.2284 229.72 26.6861C230.022 26.6861 230.323 26.6861 230.624 26.6861C230.624 26.9271 230.624 27.1078 230.624 27.3487C228.998 27.3487 227.552 27.5897 226.106 27.7704C226.046 26.9271 226.106 25.9632 226.106 25.0597C225.504 26.2644 224.962 27.5897 223.395 27.7704C221.588 27.9511 221.106 26.5054 220.805 24.9994C220.504 23.4332 220.564 21.6261 220.564 19.7587C220.564 17.8913 220.564 16.0841 220.564 14.3372C220.323 14.3372 220.022 14.3372 219.781 14.3372C219.781 14.0962 219.781 13.8553 219.781 13.6143C221.227 13.5541 222.914 13.4939 224.239 13.3131C224.359 13.3131 224.419 13.1927 224.419 13.4336C224.48 14.3372 224.419 15.542 224.419 16.4455C224.419 19.2165 224.419 21.6863 224.419 24.5175C224.419 25.1801 224.419 26.0235 225.142 25.8428C225.745 25.7223 225.925 24.2766 225.925 23.5537C225.986 22.4694 225.925 21.3851 225.925 20.4815C225.925 18.3732 225.925 16.4455 225.925 14.3372Z" fill="white"/>
<path fill-rule="evenodd" clip-rule="evenodd" d="M241.226 26.686C241.527 26.686 241.828 26.686 242.069 26.686C242.069 26.9269 242.069 27.1076 242.069 27.3486C240.322 27.3486 238.576 27.3486 236.889 27.3486C236.889 27.1076 236.889 26.9269 236.889 26.686C237.07 26.686 237.25 26.686 237.431 26.686C237.491 23.8548 237.431 20.7826 237.431 17.8309C237.431 17.4092 237.431 16.8671 237.371 16.3852C237.311 15.9033 237.25 15.3611 236.889 15.3009C236.467 15.2406 236.226 15.7828 236.166 16.084C235.805 17.2887 235.925 18.9754 235.925 20.4814C235.925 22.5897 235.925 24.5776 235.925 26.686C236.106 26.686 236.286 26.686 236.527 26.686C236.527 26.9269 236.527 27.1076 236.527 27.3486C234.781 27.3486 233.034 27.3486 231.287 27.3486C231.287 27.1076 231.287 26.9269 231.287 26.686C231.528 26.686 231.829 26.686 232.07 26.686C232.07 22.5897 232.07 18.4333 232.07 14.3371C231.829 14.3371 231.528 14.3371 231.287 14.3371C231.287 14.0961 231.287 13.8551 231.287 13.6142C232.913 13.6142 234.299 13.313 235.925 13.313C235.925 14.2166 235.925 15.0599 235.925 15.9635C236.407 14.7587 236.949 13.4937 238.335 13.2528C238.937 13.1323 239.539 13.313 239.901 13.554C240.563 13.9756 240.925 14.9997 241.045 16.0237C241.226 17.108 241.226 18.3128 241.226 19.4573C241.226 21.9874 241.226 24.4571 241.226 26.686Z" fill="white"/>
<path d="M251.708 27.2884L245.382 11.2047V24.0957C245.382 25.6619 245.744 26.5053 246.407 26.6258L246.828 26.5655V27.2884H243.575V26.5053L243.877 26.5655C244.539 26.5053 244.84 25.5415 244.84 23.7946V9.51801C244.78 9.33729 244.66 9.0361 244.479 8.67467C244.298 8.19276 243.997 8.01204 243.696 8.01204H243.575V7.28918H249.539L253.756 18.0116V9.39753C253.756 8.79514 253.695 8.43371 253.515 8.253C253.334 8.07228 253.093 8.01204 252.732 8.01204H252.43V7.22894H255.623V8.01204H255.322C254.84 8.01204 254.478 8.31324 254.418 8.91562C254.358 9.09634 254.358 9.57825 254.358 10.3613V27.2282H251.708V27.2884Z" fill="white"/>
<path d="M259.84 21.3247C259.84 22.7101 259.84 23.6137 259.9 24.0354C260.02 25.3004 260.322 26.1437 260.804 26.5052L261.526 26.7461C262.671 26.7461 263.635 25.7221 264.418 23.674L264.719 24.0354C264.056 25.4209 263.514 26.3847 263.093 26.7461C262.43 27.4087 261.647 27.7099 260.683 27.7099C259.117 27.7099 257.912 27.0473 257.069 25.7221C256.225 24.3968 255.864 22.7101 255.864 20.6018C255.864 18.8549 256.165 17.2887 256.707 15.9634C257.49 14.096 258.695 13.1924 260.322 13.1924C261.647 13.1924 262.731 13.9153 263.574 15.4213C264.418 16.9272 264.84 18.8549 264.84 21.3247H259.84ZM259.84 16.2044V20.662H261.225V16.1441C261.225 15.3008 261.225 14.8189 261.165 14.5779C261.044 14.096 260.864 13.8551 260.502 13.8551C260.081 13.9153 259.84 14.6382 259.84 16.2044Z" fill="white"/>
<path d="M265.321 14.2768V13.5539C267.189 13.5539 268.635 11.8672 269.779 8.43362H270.08V13.5539H271.887V14.2768H270.08V24.4571C270.08 25.4209 270.201 25.9631 270.502 25.9631H270.562C271.345 25.7823 271.707 24.6378 271.707 22.4692H272.068C272.068 24.0354 271.827 25.2402 271.406 26.0835C270.924 26.9269 270.321 27.469 269.418 27.5895C269.237 27.6497 269.056 27.6497 268.936 27.6497H268.514C267.731 27.6497 267.189 27.4088 266.888 26.9871C266.647 26.6859 266.466 26.204 266.345 25.4811C266.225 24.698 266.165 23.9149 266.165 23.1921V14.2768H265.321Z" fill="white"/>
<path d="M277.67 14.3371H277.128L279.116 23.4933L279.839 20.0597L278.634 14.3371H277.972V13.6142H283.333V14.3371H282.429L284.297 23.1921L285.682 16.7466C285.803 16.2647 285.863 15.7225 285.863 15.1804C285.863 14.578 285.682 14.2768 285.381 14.2768H285.2V13.554H287.61V14.2768C287.128 14.2768 286.766 14.6985 286.465 15.5418C286.405 15.7225 286.284 16.2045 286.164 16.9273L283.995 27.2884H281.405L280.08 21.2645L278.755 27.2884H276.044L273.213 14.3371H272.43V13.6142H277.61V14.3371H277.67Z" fill="white"/>
<path d="M293.272 13.2527C294.899 13.2527 296.103 14.0358 296.947 15.602C297.609 16.867 297.971 18.4934 297.971 20.4211C297.971 22.168 297.67 23.7342 297.067 25.0594C296.224 26.8666 294.959 27.7702 293.272 27.7702C291.405 27.7702 290.079 26.9268 289.236 25.2402C288.634 24.0354 288.333 22.4089 288.333 20.4813C288.333 18.6742 288.694 17.108 289.357 15.7827C290.2 14.096 291.465 13.2527 293.031 13.2527H293.272ZM293.875 16.1441C293.875 15.361 293.875 14.9394 293.814 14.7587C293.754 14.1563 293.513 13.8551 293.091 13.8551C292.549 13.8551 292.308 14.6382 292.308 16.1441V25.1197C292.308 26.3245 292.549 26.9268 293.091 26.9268C293.453 26.9268 293.694 26.6859 293.814 26.2642C293.814 26.1437 293.875 25.7823 293.875 25.1799V16.1441Z" fill="white"/>
<path d="M299.477 14.2767H298.694V13.5539L303.211 13.1924V16.0839C303.814 14.2165 304.657 13.2527 305.681 13.2527H305.862C306.585 13.2527 307.127 13.7346 307.428 14.6382C307.669 15.3008 307.79 16.0237 307.79 16.8068C307.79 17.4694 307.669 18.0718 307.428 18.6742C307.067 19.397 306.585 19.8187 305.982 19.8187C304.778 19.5777 304.175 18.4934 304.175 16.5658L304.296 15.3008C304.236 15.2406 304.236 15.1803 304.175 15.1803L304.115 15.1201C303.874 15.1201 303.693 15.7225 303.452 16.867C303.392 17.3489 303.332 18.132 303.332 19.2765V26.5052H304.477V27.2883H298.694V26.6256H299.477V14.2767Z" fill="white"/>
<path d="M312.428 20.5416L313.693 18.4332C313.874 18.1923 314.115 17.7706 314.416 17.2285C314.717 16.5658 314.898 16.0237 314.898 15.5418C314.898 14.7587 314.536 14.337 313.753 14.337H313.573V13.6744H317.91V14.337C317.849 14.337 317.789 14.337 317.669 14.337C317.187 14.337 316.584 14.8189 315.862 15.7225C315.681 15.9635 315.38 16.3851 315.078 16.867L318.09 26.6257H318.271V27.2883H313.452V26.6257H314.054L312.488 21.144L312.247 21.4452V26.6257H312.85V27.2883H307.91V26.6257H308.633V7.95172H307.91V7.2891C308.874 7.2891 310.32 7.10838 312.247 6.80719V20.5416H312.428Z" fill="white"/>
</svg>
