<svg width="155" height="36" viewBox="0 0 155 36" fill="none" xmlns="http://www.w3.org/2000/svg">
<path fill-rule="evenodd" clip-rule="evenodd" d="M34.5762 0.842041C34.6921 0.891045 34.8597 0.894675 34.972 0.949124C34.5706 5.95664 31.4297 8.45223 25.6781 8.0729V30.2755C29.8022 29.3226 32.3908 26.6982 34.3258 23.5256C34.4896 23.5873 34.648 23.6526 34.81 23.7198C33.5507 28.8961 30.7191 32.8473 25.8217 34.4408C23.3786 35.2376 19.8897 35.3901 16.9937 34.7948C14.2818 34.2376 12.0393 33.1177 10.235 31.6784C7.51757 29.5041 5.56049 26.4386 5.23829 21.9121C5.12783 20.3566 5.27512 18.8284 5.59547 17.4472C6.20671 14.8464 7.43288 12.7174 8.90576 10.9061C10.3842 9.08747 12.1774 7.57015 14.0627 6.21073C11.6895 5.7334 9.03832 5.90763 7.26718 6.8133C5.78694 7.56833 4.61969 8.77529 3.68993 10.1438C3.57394 10.3108 3.37879 10.6629 3.25912 10.6937C3.14129 10.7282 2.98663 10.6719 2.86328 10.6937C3.35301 7.36869 4.74856 4.94207 7.01679 3.31948C9.23715 1.73864 12.4554 0.871081 16.3456 1.12518C20.779 1.41376 24.4851 2.73687 28.6405 3.33944C29.526 3.47012 30.4521 3.55543 31.3045 3.42838C32.9873 3.1761 33.79 2.12704 34.5393 0.89649C34.5541 0.880155 34.5504 0.845671 34.5743 0.843856M10.3934 16.4708C9.96991 21.5672 11.776 25.0429 14.4235 27.3007C14.9151 26.8488 15.3551 26.3787 15.646 25.7199C15.9424 25.0483 16.0271 24.2243 16.0271 23.2915V6.5102C15.8099 6.49205 15.6092 6.4612 15.414 6.42127C12.912 8.84063 10.7763 11.9225 10.3952 16.4708M21.2208 7.39773V13.9534C21.2208 16.164 21.3552 18.3856 21.0036 20.3185C20.3261 24.0574 17.9087 26.0375 15.5576 28.0957C17.5331 29.8127 20.6151 30.7728 24.4557 30.4878V7.99848C23.3786 7.79157 22.3255 7.56107 21.2374 7.36506C21.2319 7.33602 21.2116 7.36506 21.219 7.39954" fill="white"/>
<path fill-rule="evenodd" clip-rule="evenodd" d="M39.609 2.31228C40.5903 2.30865 41.1702 2.74606 41.4574 3.49746C42.0226 4.95851 41.6526 7.29801 40.4172 7.82254C39.539 8.19642 38.3994 7.82798 37.9354 7.16733C37.5966 6.68092 37.4493 6.00212 37.4512 5.25254C37.4567 3.61906 37.8875 2.31772 39.609 2.31228Z" fill="white"/>
<path fill-rule="evenodd" clip-rule="evenodd" d="M47.4446 10.9769C47.8515 10.2963 48.1977 9.54854 48.901 9.15288C49.5545 8.78444 50.4714 9.00042 50.9335 9.3489C51.4325 9.7246 51.7712 10.2854 52.0308 10.8499C53.0618 13.1331 53.2809 17.0172 52.5868 19.9102C52.2554 21.2823 51.5834 22.5801 50.5727 23.081C49.77 23.4803 48.7702 23.248 48.2713 22.7616C47.7447 22.2461 47.4888 21.4965 47.2826 20.7034C47.2421 21.5274 47.2789 22.4258 47.2642 23.2734C45.8098 23.1191 44.4584 22.8632 42.8438 22.8668V22.2134H43.6704C43.7146 16.0716 43.6759 9.8589 43.6888 3.69162H42.8438V3.05094C44.4271 2.99649 45.946 2.84222 47.301 2.6099C47.4575 2.58268 47.4354 2.5972 47.4446 2.78777C47.5238 4.10181 47.4446 5.45396 47.4446 6.7553V10.9733V10.9769ZM47.4649 13.1404C47.4226 14.0497 47.4446 15.0951 47.4446 16.2404C47.4446 17.2549 47.4281 18.3203 47.4649 19.324C47.4778 19.7578 47.522 20.2859 47.6269 20.7233C47.719 21.1154 47.9307 21.6272 48.3265 21.5927C48.6763 21.5619 48.7739 20.9956 48.831 20.5836C49.0188 19.1988 48.9212 17.5489 48.9212 16.1151V13.0877C48.9212 12.5342 48.9212 12.1567 48.8476 11.6557C48.7702 11.1258 48.6524 10.6502 48.2179 10.7301C47.5183 10.8644 47.498 12.3436 47.4649 13.1404Z" fill="white"/>
<path fill-rule="evenodd" clip-rule="evenodd" d="M31.6609 8.99316V11.8445C32.193 10.5922 32.7066 8.90605 34.5201 9.09843C34.8147 9.12929 35.1369 9.29445 35.3284 9.47595C36.5251 10.5867 36.6595 14.0497 35.472 15.2149C35.2474 15.4327 34.8662 15.6414 34.4465 15.6033C33.9531 15.5616 33.5407 15.2385 33.2958 14.9299C32.8355 14.3437 32.644 13.3564 32.6496 12.4489C32.6532 12.1984 32.7103 11.888 32.7416 11.6176C32.7674 11.369 32.8595 11.0441 32.6164 10.9061C32.285 11.0967 32.204 11.5378 32.112 11.9189C31.8266 13.1077 31.8432 14.6468 31.8432 16.1714V22.1971C32.1838 22.237 32.5999 22.2025 32.9754 22.2171V22.8705H27.1152V22.2171H27.9069C27.9456 18.1915 27.9106 14.0932 27.9235 10.0386H27.1152V9.33075C28.6268 9.21641 30.1328 9.09299 31.6627 8.99316" fill="white"/>
<path fill-rule="evenodd" clip-rule="evenodd" d="M41.53 8.99316C41.6147 13.3201 41.5447 17.7994 41.5668 22.1953C41.8264 22.2352 42.1615 22.2007 42.4487 22.2152V22.8686H36.8389V22.2152H37.6305C37.671 18.1969 37.6397 14.1041 37.649 10.0567H36.8389V9.33075C38.5106 9.32167 39.9798 9.1184 41.5318 8.99316" fill="white"/>
<path fill-rule="evenodd" clip-rule="evenodd" d="M59.7598 10.0568H58.8981V9.33081C60.5275 9.31266 61.9139 9.05312 63.5561 9.04767V22.2153H64.4546V22.8687C62.8013 22.8723 61.3744 23.0956 59.9218 23.2934C59.8813 22.4367 59.9181 21.5038 59.9052 20.6199C59.3032 21.8251 58.7324 23.1373 57.173 23.2753C55.3706 23.4368 54.8588 22.0284 54.5863 20.5274C54.3046 18.9847 54.3709 17.206 54.3709 15.391V10.0568H53.5811V9.33081C55.0447 9.2818 56.687 9.20013 58.0549 9.01137C58.1709 8.99685 58.2169 8.91881 58.2335 9.13298C58.3108 10.0514 58.2335 11.2347 58.2335 12.0968V20.0355C58.2335 20.6671 58.204 21.4911 58.935 21.3477C59.5462 21.2243 59.7027 19.8159 59.7432 19.1117C59.8076 18.0245 59.7616 16.9718 59.7616 16.097V10.0568H59.7598Z" fill="white"/>
<path fill-rule="evenodd" clip-rule="evenodd" d="M75.0206 22.2154H75.8859V22.8688H70.6885V22.2154H71.2096C71.2409 19.4493 71.2298 16.3802 71.2261 13.4745C71.2261 13.0461 71.2298 12.5107 71.1911 12.057C71.1525 11.5887 71.0678 11.0442 70.6867 11.0134C70.2356 10.9716 70.0533 11.4653 69.9502 11.8101C69.5968 12.9681 69.698 14.6433 69.698 16.1316C69.698 18.2006 69.698 20.1953 69.698 22.2136H70.2724V22.8669H65.04V22.2136H65.8317V10.0569H65.04V9.33087C66.662 9.30365 68.0484 9.04955 69.6962 9.04955V11.6559C70.1859 10.4888 70.7438 9.24557 72.1227 9.01144C72.7266 8.90617 73.2992 9.06588 73.684 9.31272C74.3615 9.74287 74.6892 10.7357 74.8549 11.7248C75.0317 12.7775 75.0151 13.9609 75.0151 15.1079C75.0188 17.5926 75.0151 20.0374 75.0151 22.219" fill="white"/>
<path d="M85.5044 22.7816L79.1563 6.94775V19.6235C79.1563 21.1808 79.5042 22.003 80.1965 22.0883L80.607 22.032V22.7834H77.3428V22.032L77.6429 22.0883C78.2836 22.003 78.6039 21.0973 78.6039 19.3713V5.27979C78.5248 5.09648 78.4069 4.81516 78.2504 4.43946C78.0516 3.99298 77.792 3.77155 77.468 3.77155H77.3428V3.07823H83.319L87.5443 13.6178V5.17271C87.5443 4.60644 87.4541 4.23981 87.2773 4.07465C87.0987 3.90949 86.8355 3.82781 86.4893 3.82781H86.1892V3.07642H89.3891V3.82781H89.1055C88.6011 3.82781 88.2918 4.1291 88.1758 4.73349C88.1445 4.88413 88.1279 5.36691 88.1279 6.17821V22.7816H85.5062H85.5044Z" fill="white"/>
<path d="M93.645 16.9445C93.645 18.3148 93.6653 19.2023 93.7076 19.607C93.8347 20.883 94.1384 21.6888 94.6226 22.03L95.3315 22.2569C96.4674 22.2569 97.434 21.2514 98.233 19.2404L98.5331 19.6234C97.8814 21.0118 97.3401 21.9084 96.9093 22.315C96.2465 22.9375 95.453 23.2497 94.5288 23.2497C92.9528 23.2497 91.7542 22.5981 90.9349 21.295C90.1156 19.9918 89.7051 18.3112 89.7051 16.2512C89.7051 14.5233 89.9941 13.0024 90.5722 11.6901C91.3713 9.87697 92.579 8.96948 94.1974 8.96948C95.5009 8.96948 96.5761 9.6991 97.4211 11.1583C98.2662 12.6176 98.6896 14.5469 98.6896 16.9445H93.645ZM93.645 11.9007V16.2784H95.0001V11.8444C95.0001 11.0313 94.9798 10.5267 94.9375 10.3289C94.8325 9.84793 94.6171 9.60654 94.2913 9.60654C93.8604 9.60654 93.645 10.3706 93.645 11.9007Z" fill="white"/>
<path d="M99.1152 10.0188V9.32543C100.966 9.32543 102.451 7.6484 103.576 4.29614H103.891V9.32543H105.673V10.0188H103.891V20.0483C103.891 21.0211 104.033 21.5075 104.316 21.5075H104.379C105.136 21.3478 105.515 20.1953 105.515 18.0518H105.861C105.861 19.6 105.635 20.7924 105.183 21.6291C104.732 22.464 104.075 22.9686 103.214 23.1374C103.024 23.1755 102.867 23.1936 102.74 23.1936H102.346C101.547 23.1936 101.012 22.9758 100.739 22.5421C100.498 22.2499 100.325 21.7489 100.218 21.0411C100.102 20.2661 100.045 19.5111 100.045 18.7742V10.0188H99.1152Z" fill="white"/>
<path d="M111.46 10.0333H110.935L112.916 19.0555L113.625 15.6706L112.446 10.0351H111.774V9.3109H117.119V10.0333H116.235L118.111 18.7724L119.467 12.4091C119.571 11.919 119.625 11.4145 119.625 10.8954C119.625 10.32 119.457 10.0333 119.12 10.0333H118.916V9.3109H121.344V10.0333C120.851 10.0333 120.472 10.4471 120.208 11.2729C120.146 11.4616 120.041 11.9118 119.894 12.625L117.765 22.7816H115.184L113.888 16.8213L112.59 22.7816H109.882L107.059 10.0314H106.286V9.30908H111.458V10.0314L111.46 10.0333Z" fill="white"/>
<path d="M127.038 8.96948C128.656 8.96948 129.886 9.74448 130.727 11.2926C131.41 12.5595 131.753 14.1349 131.753 16.0243C131.753 17.7721 131.443 19.2967 130.823 20.5998C129.982 22.3658 128.711 23.2497 127.008 23.2497C125.147 23.2497 123.797 22.4184 122.956 20.7559C122.347 19.5471 122.041 17.9881 122.041 16.0805C122.041 14.2855 122.382 12.7374 123.067 11.4342C123.928 9.79167 125.158 8.96948 126.756 8.96948H127.04H127.038ZM127.621 11.8462C127.621 11.1003 127.61 10.652 127.59 10.4995C127.505 9.90419 127.27 9.60654 126.881 9.60654C126.366 9.60654 126.108 10.3525 126.108 11.8444V20.7124C126.108 21.8939 126.366 22.4838 126.881 22.4838C127.27 22.4838 127.507 22.2569 127.59 21.8032C127.61 21.6888 127.621 21.3258 127.621 20.7124V11.8444V11.8462Z" fill="white"/>
<path d="M133.218 10.0187H132.413V9.31084L136.922 8.97144V11.8482C137.52 10.006 138.341 9.08578 139.382 9.08578H139.571C140.286 9.08578 140.812 9.5486 141.147 10.4742C141.388 11.1077 141.51 11.8246 141.51 12.6268C141.51 13.2874 141.388 13.8973 141.147 14.4545C140.81 15.1913 140.328 15.5598 139.696 15.5598C138.498 15.3511 137.9 14.2748 137.9 12.3291L138.027 11.0532C137.984 10.9969 137.953 10.9588 137.933 10.9407L137.87 10.8844C137.638 10.8844 137.423 11.4561 137.224 12.5978C137.139 13.0696 137.097 13.8628 137.097 14.9772V22.1173H138.216V22.7834H132.415V22.1173H133.219V10.0187H133.218Z" fill="white"/>
<path d="M146.194 16.137L147.486 14.0298C147.665 13.7648 147.912 13.3655 148.227 12.8337C148.552 12.2075 148.714 11.6576 148.714 11.1839C148.714 10.3871 148.335 9.98784 147.58 9.98784H147.391V9.30722H151.743V9.98784H151.522C151.038 9.98784 150.445 10.4507 149.74 11.3763C149.55 11.6213 149.283 11.9988 148.935 12.5088L151.931 22.1137H152.135V22.7798H147.326V22.1137H147.952L146.415 16.7159L146.19 16.9991V22.1137H146.805V22.7798H141.854V22.1137H142.595V3.71347H141.854V3.07642C142.801 3.07642 144.246 2.92033 146.19 2.60815V16.137H146.194Z" fill="white"/>
<path d="M38.3278 30.7002L36.8605 26.5348H36.8329C36.8715 27.1537 36.8918 27.7327 36.8918 28.2754V30.7002H36.1406V25.7126H37.306L38.7108 29.6802H38.731L40.1781 25.7126H41.3472V30.7002H40.5519V28.2336C40.5519 27.985 40.5574 27.6637 40.5703 27.2644C40.5832 26.867 40.5942 26.6256 40.6034 26.5421H40.5758L39.0569 30.7002H38.326H38.3278Z" fill="white"/>
<path d="M44.9893 30.7003L44.8272 30.1758H44.7996C44.6155 30.4045 44.4296 30.5624 44.2418 30.6441C44.0558 30.7276 43.8146 30.7693 43.5219 30.7693C43.1463 30.7693 42.8517 30.6695 42.6419 30.4698C42.4301 30.2702 42.3252 29.9871 42.3252 29.6204C42.3252 29.232 42.4725 28.938 42.7652 28.7402C43.058 28.5423 43.5053 28.4353 44.1037 28.4153L44.7646 28.3953V28.1939C44.7646 27.9525 44.7076 27.7728 44.5934 27.653C44.4793 27.5332 44.3025 27.4733 44.0613 27.4733C43.8662 27.4733 43.6766 27.5024 43.498 27.5586C43.3175 27.6149 43.1445 27.682 42.9788 27.7601L42.7155 27.1866C42.9236 27.0795 43.15 26.9978 43.3967 26.9434C43.6434 26.8871 43.8772 26.8599 44.0963 26.8599C44.5824 26.8599 44.9506 26.9633 45.1991 27.1739C45.4477 27.3826 45.571 27.7111 45.571 28.1594V30.7003H44.9893ZM43.7778 30.154C44.0724 30.154 44.3099 30.0724 44.4885 29.9108C44.6671 29.7475 44.7573 29.5206 44.7573 29.2266V28.8999L44.2657 28.9199C43.8828 28.9326 43.6048 28.9961 43.4299 29.1086C43.2549 29.2211 43.1684 29.3936 43.1684 29.6259C43.1684 29.7947 43.2181 29.9235 43.3212 30.0161C43.4225 30.1087 43.5753 30.154 43.7778 30.154Z" fill="white"/>
<path d="M48.132 30.1194C48.3309 30.1194 48.5279 30.0886 48.7267 30.0269V30.6313C48.6365 30.6694 48.5205 30.702 48.3788 30.7293C48.237 30.7547 48.0897 30.7692 47.9369 30.7692C47.1673 30.7692 46.7807 30.3681 46.7807 29.5677V27.5349H46.2578V27.181L46.8193 26.887L47.0955 26.0884H47.5981V26.9269H48.6881V27.5349H47.5981V29.555C47.5981 29.7492 47.6478 29.8907 47.7454 29.9833C47.843 30.0759 47.9719 30.1213 48.132 30.1213" fill="white"/>
<path d="M51.8857 30.7003L51.7237 30.1758H51.6961C51.512 30.4045 51.3261 30.5624 51.1383 30.6441C50.9523 30.7276 50.7111 30.7693 50.4184 30.7693C50.0428 30.7693 49.7482 30.6695 49.5383 30.4698C49.3266 30.2702 49.2217 29.9871 49.2217 29.6204C49.2217 29.232 49.369 28.938 49.6617 28.7402C49.9544 28.5423 50.4018 28.4353 51.0002 28.4153L51.6611 28.3953V28.1939C51.6611 27.9525 51.6041 27.7728 51.4899 27.653C51.3758 27.5332 51.199 27.4733 50.9578 27.4733C50.7627 27.4733 50.573 27.5024 50.3945 27.5586C50.214 27.6149 50.041 27.682 49.8753 27.7601L49.612 27.1866C49.82 27.0795 50.0465 26.9978 50.2932 26.9434C50.5399 26.8871 50.7737 26.8599 50.9928 26.8599C51.4789 26.8599 51.8471 26.9633 52.0956 27.1739C52.3442 27.3826 52.4675 27.7111 52.4675 28.1594V30.7003H51.8857ZM50.6743 30.154C50.9689 30.154 51.2064 30.0724 51.385 29.9108C51.5636 29.7475 51.6538 29.5206 51.6538 29.2266V28.8999L51.1622 28.9199C50.7792 28.9326 50.5012 28.9961 50.3263 29.1086C50.1514 29.2211 50.0649 29.3936 50.0649 29.6259C50.0649 29.7947 50.1146 29.9235 50.2177 30.0161C50.319 30.1087 50.4718 30.154 50.6743 30.154Z" fill="white"/>
<path d="M55.5293 30.7002V25.7126H56.3578V29.9996H58.499V30.7002H55.5293Z" fill="white"/>
<path d="M62.68 28.8054C62.68 29.4225 62.5199 29.9016 62.1995 30.2483C61.8792 30.5949 61.4318 30.7674 60.861 30.7674C60.5039 30.7674 60.1872 30.6875 59.9129 30.5278C59.6385 30.3681 59.4268 30.1412 59.2795 29.8417C59.1322 29.5441 59.0586 29.1974 59.0586 28.8054C59.0586 28.1937 59.2169 27.7164 59.5354 27.3734C59.8539 27.0303 60.3032 26.8579 60.8813 26.8579C61.4594 26.8579 61.8736 27.034 62.1958 27.3843C62.518 27.7345 62.68 28.2101 62.68 28.8054ZM59.8945 28.8054C59.8945 29.6766 60.2203 30.1122 60.8739 30.1122C61.5275 30.1122 61.8423 29.6766 61.8423 28.8054C61.8423 27.9342 61.5165 27.5131 60.8666 27.5131C60.5241 27.5131 60.2774 27.6238 60.1246 27.8471C59.9718 28.0703 59.8945 28.3897 59.8945 28.8054Z" fill="white"/>
<path d="M64.3994 28.7073L64.8597 28.141L66.0159 26.9268H66.953L65.412 28.5476L67.0488 30.7002H66.0951L64.8652 29.0449L64.4197 29.4061V30.7002H63.6133V25.3914H64.4197V27.9813L64.3773 28.7073H64.3994Z" fill="white"/>
<path d="M70.0615 30.7003L69.8995 30.1758H69.8719C69.6878 30.4045 69.5018 30.5624 69.314 30.6441C69.1281 30.7276 68.8869 30.7693 68.5942 30.7693C68.2186 30.7693 67.924 30.6695 67.7141 30.4698C67.5024 30.2702 67.3975 29.9871 67.3975 29.6204C67.3975 29.232 67.5447 28.938 67.8375 28.7402C68.1302 28.5423 68.5776 28.4353 69.176 28.4153L69.8369 28.3953V28.1939C69.8369 27.9525 69.7798 27.7728 69.6657 27.653C69.5515 27.5332 69.3748 27.4733 69.1336 27.4733C68.9385 27.4733 68.7488 27.5024 68.5702 27.5586C68.3898 27.6149 68.2167 27.682 68.051 27.7601L67.7878 27.1866C67.9958 27.0795 68.2223 26.9978 68.469 26.9434C68.7157 26.8871 68.9495 26.8599 69.1686 26.8599C69.6546 26.8599 70.0229 26.9633 70.2714 27.1739C70.52 27.3826 70.6433 27.7111 70.6433 28.1594V30.7003H70.0615ZM68.8501 30.154C69.1447 30.154 69.3822 30.0724 69.5607 29.9108C69.7393 29.7475 69.8295 29.5206 69.8295 29.2266V28.8999L69.338 28.9199C68.955 28.9326 68.677 28.9961 68.5021 29.1086C68.3272 29.2211 68.2407 29.3936 68.2407 29.6259C68.2407 29.7947 68.2904 29.9235 68.3935 30.0161C68.4948 30.1087 68.6476 30.154 68.8501 30.154Z" fill="white"/>
<path d="M72.5911 25.3914H71.7773V30.7002H72.5911V25.3914Z" fill="white"/>
<path d="M77.8669 30.7002L76.3996 26.5348H76.3719C76.4106 27.1537 76.4309 27.7327 76.4309 28.2754V30.7002H75.6797V25.7126H76.8451L78.2499 29.6802H78.2701L79.7172 25.7126H80.8863V30.7002H80.091V28.2336C80.091 27.985 80.0965 27.6637 80.1094 27.2644C80.1223 26.867 80.1333 26.6256 80.1425 26.5421H80.1149L78.596 30.7002H77.8651H77.8669Z" fill="white"/>
<path d="M83.8063 30.7674C83.2116 30.7674 82.7458 30.5968 82.4089 30.2537C82.0738 29.9107 81.9062 29.4406 81.9062 28.8399C81.9062 28.2391 82.0627 27.74 82.3739 27.3861C82.685 27.034 83.114 26.8579 83.6571 26.8579C84.1616 26.8579 84.5611 27.0086 84.8538 27.3117C85.1466 27.6148 85.2939 28.0304 85.2939 28.5604V28.9941H82.7439C82.755 29.3608 82.8563 29.6421 83.0459 29.8381C83.2355 30.0341 83.5025 30.1339 83.8449 30.1339C84.0714 30.1339 84.2813 30.114 84.4764 30.0704C84.6716 30.0287 84.8815 29.9579 85.1042 29.8599V30.5115C84.9054 30.604 84.7047 30.6712 84.5022 30.7093C84.2997 30.7474 84.0677 30.7674 83.8063 30.7674ZM83.6571 27.4659C83.3994 27.4659 83.1913 27.5476 83.0367 27.7073C82.8802 27.8689 82.7881 28.1048 82.7587 28.4133H84.4967C84.493 28.1012 84.4157 27.8652 84.2684 27.7055C84.1211 27.5458 83.9186 27.4641 83.659 27.4641" fill="white"/>
<path d="M89.5842 30.7003H88.7686V28.3808C88.7686 28.0904 88.7096 27.8726 88.59 27.7292C88.4703 27.5859 88.2825 27.5151 88.0247 27.5151C87.6805 27.5151 87.4301 27.6149 87.2699 27.8145C87.1116 28.0142 87.0306 28.35 87.0306 28.82V30.7003H86.2168V26.927H86.8538L86.968 27.4225H87.0085C87.1245 27.2428 87.2883 27.1049 87.5 27.0069C87.7118 26.9089 87.9474 26.8599 88.2052 26.8599C89.1239 26.8599 89.5823 27.3209 89.5823 28.2411V30.7003H89.5842Z" fill="white"/>
<path d="M90.3262 32.3772C90.0813 32.3772 89.8788 32.3482 89.7168 32.2919V31.6567C89.8733 31.6984 90.0335 31.7184 90.1973 31.7184C90.5435 31.7184 90.7165 31.526 90.7165 31.1376V26.925H91.5303V31.1921C91.5303 31.5805 91.4272 31.8763 91.221 32.0759C91.0148 32.2756 90.7165 32.3754 90.3262 32.3754M90.6686 25.925C90.6686 25.7816 90.7091 25.6709 90.7883 25.5947C90.8675 25.5166 90.9816 25.4785 91.1289 25.4785C91.2762 25.4785 91.383 25.5166 91.464 25.5947C91.5432 25.6727 91.5837 25.7834 91.5837 25.925C91.5837 26.0666 91.5432 26.1682 91.464 26.2481C91.3848 26.3261 91.2725 26.366 91.1289 26.366C90.9853 26.366 90.8675 26.3261 90.7883 26.2481C90.7091 26.17 90.6686 26.0629 90.6686 25.925Z" fill="white"/>
<path d="M95.0869 30.7003L94.9249 30.1758H94.8973C94.7132 30.4045 94.5272 30.5624 94.3394 30.6441C94.1535 30.7276 93.9123 30.7693 93.6196 30.7693C93.244 30.7693 92.9494 30.6695 92.7395 30.4698C92.5278 30.2702 92.4229 29.9871 92.4229 29.6204C92.4229 29.232 92.5701 28.938 92.8629 28.7402C93.1556 28.5423 93.603 28.4353 94.2014 28.4153L94.8623 28.3953V28.1939C94.8623 27.9525 94.8052 27.7728 94.6911 27.653C94.5769 27.5332 94.4002 27.4733 94.159 27.4733C93.9638 27.4733 93.7742 27.5024 93.5956 27.5586C93.4152 27.6149 93.2421 27.682 93.0764 27.7601L92.8132 27.1866C93.0212 27.0795 93.2477 26.9978 93.4944 26.9434C93.7411 26.8871 93.9749 26.8599 94.194 26.8599C94.68 26.8599 95.0483 26.9633 95.2968 27.1739C95.5453 27.3826 95.6687 27.7111 95.6687 28.1594V30.7003H95.0869ZM93.8755 30.154C94.1701 30.154 94.4076 30.0724 94.5861 29.9108C94.7647 29.7475 94.8549 29.5206 94.8549 29.2266V28.8999L94.3634 28.9199C93.9804 28.9326 93.7024 28.9961 93.5275 29.1086C93.3526 29.2211 93.2661 29.3936 93.2661 29.6259C93.2661 29.7947 93.3158 29.9235 93.4189 30.0161C93.5201 30.1087 93.673 30.154 93.8755 30.154Z" fill="white"/>
<path d="M100.17 30.7003H99.3545V28.3808C99.3545 28.0904 99.2956 27.8726 99.1759 27.7292C99.0562 27.5859 98.8684 27.5151 98.6107 27.5151C98.2664 27.5151 98.016 27.6149 97.8558 27.8145C97.6975 28.0142 97.6165 28.35 97.6165 28.82V30.7003H96.8027V26.927H97.4398L97.5539 27.4225H97.5944C97.7104 27.2428 97.8743 27.1049 98.086 27.0069C98.2977 26.9089 98.5334 26.8599 98.7911 26.8599C99.7098 26.8599 100.168 27.3209 100.168 28.2411V30.7003H100.17Z" fill="white"/>
<path d="M104.534 26.9271V27.3663L103.88 27.4861C103.941 27.5659 103.991 27.6639 104.029 27.7801C104.068 27.8962 104.088 28.0178 104.088 28.1485C104.088 28.5369 103.952 28.8437 103.679 29.0669C103.407 29.2901 103.031 29.4009 102.554 29.4009C102.433 29.4009 102.322 29.3918 102.223 29.3736C102.048 29.4807 101.96 29.606 101.96 29.7493C101.96 29.8365 102 29.9 102.083 29.9435C102.164 29.9871 102.315 30.0089 102.534 30.0089H103.203C103.624 30.0089 103.945 30.0978 104.165 30.2757C104.385 30.4535 104.493 30.7095 104.493 31.0434C104.493 31.4717 104.315 31.8003 103.957 32.0326C103.6 32.2649 103.083 32.381 102.407 32.381C101.886 32.381 101.488 32.2903 101.214 32.1088C100.94 31.9273 100.802 31.6678 100.802 31.3302C100.802 31.0979 100.875 30.9037 101.025 30.7458C101.174 30.5879 101.382 30.4771 101.649 30.4172C101.54 30.3719 101.452 30.2993 101.38 30.1976C101.31 30.096 101.275 29.9907 101.275 29.8782C101.275 29.7366 101.315 29.6187 101.396 29.5206C101.477 29.4226 101.597 29.3264 101.755 29.2303C101.557 29.1468 101.396 29.0088 101.273 28.8201C101.15 28.6295 101.089 28.4081 101.089 28.1522C101.089 27.7438 101.22 27.4262 101.481 27.2011C101.743 26.9761 102.116 26.8635 102.601 26.8635C102.709 26.8635 102.823 26.8708 102.941 26.8853C103.059 26.8998 103.149 26.9162 103.21 26.9307H104.535L104.534 26.9271ZM101.527 31.2866C101.527 31.459 101.606 31.5933 101.765 31.6859C101.923 31.7785 102.146 31.8257 102.431 31.8257C102.875 31.8257 103.204 31.7621 103.422 31.6387C103.639 31.5135 103.748 31.3483 103.748 31.1414C103.748 30.9781 103.689 30.8619 103.569 30.7911C103.449 30.7222 103.228 30.6877 102.906 30.6877H102.289C102.057 30.6877 101.871 30.7421 101.733 30.8492C101.595 30.9581 101.527 31.1033 101.527 31.2884M101.877 28.1503C101.877 28.3863 101.94 28.5696 102.061 28.6966C102.184 28.8237 102.361 28.8872 102.593 28.8872C103.064 28.8872 103.298 28.6386 103.298 28.1431C103.298 27.8981 103.239 27.7075 103.123 27.575C103.007 27.4425 102.831 27.3753 102.591 27.3753C102.352 27.3753 102.177 27.4407 102.057 27.5732C101.936 27.7057 101.875 27.8981 101.875 28.1503" fill="white"/>
<path d="M106.028 28.7073L106.489 28.141L107.645 26.9268H108.582L107.043 28.5476L108.68 30.7002H107.724L106.496 29.0449L106.049 29.4061V30.7002H105.242V25.3914H106.049V27.9813L106.008 28.7073H106.028Z" fill="white"/>
<path d="M111.69 30.7003L111.528 30.1758H111.501C111.317 30.4045 111.131 30.5624 110.943 30.6441C110.757 30.7276 110.516 30.7693 110.223 30.7693C109.847 30.7693 109.553 30.6695 109.343 30.4698C109.131 30.2702 109.026 29.9871 109.026 29.6204C109.026 29.232 109.174 28.938 109.466 28.7402C109.759 28.5423 110.207 28.4353 110.805 28.4153L111.466 28.3953V28.1939C111.466 27.9525 111.409 27.7728 111.295 27.653C111.18 27.5332 111.004 27.4733 110.763 27.4733C110.567 27.4733 110.378 27.5024 110.199 27.5586C110.019 27.6149 109.846 27.682 109.68 27.7601L109.417 27.1866C109.625 27.0795 109.851 26.9978 110.098 26.9434C110.345 26.8871 110.578 26.8599 110.798 26.8599C111.284 26.8599 111.652 26.9633 111.9 27.1739C112.149 27.3826 112.272 27.7111 112.272 28.1594V30.7003H111.69ZM110.479 30.154C110.774 30.154 111.011 30.0724 111.19 29.9108C111.368 29.7475 111.458 29.5206 111.458 29.2266V28.8999L110.967 28.9199C110.584 28.9326 110.306 28.9961 110.131 29.1086C109.956 29.2211 109.87 29.3936 109.87 29.6259C109.87 29.7947 109.919 29.9235 110.022 30.0161C110.124 30.1087 110.276 30.154 110.479 30.154Z" fill="white"/>
<path d="M116.107 30.7002L115.993 30.2047H115.951C115.838 30.3808 115.676 30.5169 115.468 30.6167C115.26 30.7165 115.021 30.7673 114.754 30.7673C114.29 30.7673 113.944 30.653 113.715 30.4261C113.487 30.1993 113.373 29.8544 113.373 29.3916V26.925H114.194V29.2518C114.194 29.5404 114.253 29.7582 114.375 29.9016C114.494 30.0468 114.682 30.1176 114.938 30.1176C115.28 30.1176 115.531 30.0178 115.691 29.8163C115.851 29.6148 115.932 29.2773 115.932 28.8054V26.925H116.75V30.6984H116.109L116.107 30.7002Z" fill="white"/>
<path d="M120.66 25.7126H119.833V30.7002H120.66V25.7126Z" fill="white"/>
<path d="M125.276 30.7003H124.46V28.3808C124.46 28.0904 124.401 27.8726 124.281 27.7292C124.162 27.5859 123.974 27.5151 123.716 27.5151C123.372 27.5151 123.121 27.6149 122.961 27.8145C122.801 28.0142 122.722 28.35 122.722 28.82V30.7003H121.908V26.927H122.545L122.659 27.4225H122.7C122.816 27.2428 122.98 27.1049 123.191 27.0069C123.403 26.9089 123.639 26.8599 123.897 26.8599C124.815 26.8599 125.274 27.3209 125.274 28.2411V30.7003H125.276Z" fill="white"/>
<path d="M127.699 30.7673C127.222 30.7673 126.848 30.5967 126.581 30.2555C126.314 29.9143 126.18 29.4351 126.18 28.8198C126.18 28.2046 126.314 27.72 126.587 27.3751C126.857 27.0303 127.233 26.8579 127.713 26.8579C128.194 26.8579 128.599 27.0412 128.862 27.406H128.905C128.866 27.1355 128.846 26.9214 128.846 26.7653V25.3914H129.663V30.7002H129.026L128.884 30.2047H128.846C128.584 30.5804 128.203 30.7673 127.7 30.7673M127.918 30.1194C128.253 30.1194 128.496 30.0268 128.649 29.8417C128.801 29.6565 128.879 29.3553 128.884 28.9396V28.8271C128.884 28.3516 128.805 28.014 128.649 27.8143C128.492 27.6147 128.245 27.5131 127.912 27.5131C127.627 27.5131 127.406 27.6274 127.251 27.8561C127.097 28.0848 127.019 28.4097 127.019 28.8325C127.019 29.2554 127.095 29.5694 127.244 29.789C127.393 30.0087 127.619 30.1175 127.92 30.1175" fill="white"/>
<path d="M134.218 28.8054C134.218 29.4225 134.058 29.9016 133.738 30.2483C133.417 30.5949 132.97 30.7674 132.399 30.7674C132.042 30.7674 131.725 30.6875 131.451 30.5278C131.177 30.3681 130.965 30.1412 130.818 29.8417C130.67 29.5441 130.597 29.1974 130.597 28.8054C130.597 28.1937 130.755 27.7164 131.074 27.3734C131.392 27.0303 131.841 26.8579 132.419 26.8579C132.997 26.8579 133.412 27.034 133.734 27.3843C134.056 27.7364 134.218 28.2101 134.218 28.8054ZM131.433 28.8054C131.433 29.6766 131.758 30.1122 132.412 30.1122C133.066 30.1122 133.38 29.6766 133.38 28.8054C133.38 27.9342 133.055 27.5131 132.405 27.5131C132.062 27.5131 131.815 27.6238 131.663 27.8471C131.51 28.0703 131.433 28.3897 131.433 28.8054Z" fill="white"/>
<path d="M138.521 30.7003H137.705V28.3808C137.705 28.0904 137.646 27.8726 137.526 27.7292C137.407 27.5859 137.219 27.5151 136.961 27.5151C136.617 27.5151 136.367 27.6149 136.206 27.8145C136.046 28.0142 135.967 28.35 135.967 28.82V30.7003H135.153V26.927H135.79L135.904 27.4225H135.945C136.061 27.2428 136.225 27.1049 136.437 27.0069C136.648 26.9089 136.884 26.8599 137.142 26.8599C138.06 26.8599 138.519 27.3209 138.519 28.2411V30.7003H138.521Z" fill="white"/>
<path d="M141.323 30.7674C140.728 30.7674 140.262 30.5968 139.925 30.2537C139.59 29.9107 139.423 29.4406 139.423 28.8399C139.423 28.2391 139.579 27.74 139.89 27.3861C140.202 27.0321 140.631 26.8579 141.174 26.8579C141.678 26.8579 142.078 27.0086 142.37 27.3117C142.663 27.6148 142.81 28.0304 142.81 28.5604V28.9941H140.261C140.272 29.3608 140.373 29.6421 140.562 29.8381C140.752 30.0341 141.019 30.1339 141.362 30.1339C141.588 30.1339 141.798 30.114 141.993 30.0704C142.188 30.0287 142.398 29.9579 142.621 29.8599V30.5115C142.422 30.604 142.221 30.6712 142.019 30.7093C141.816 30.7474 141.584 30.7674 141.323 30.7674ZM141.174 27.4659C140.916 27.4659 140.708 27.5476 140.553 27.7073C140.397 27.8689 140.305 28.1048 140.275 28.4133H142.013C142.01 28.1012 141.932 27.8652 141.785 27.7055C141.638 27.5458 141.435 27.4641 141.176 27.4641" fill="white"/>
<path d="M146.306 29.6259C146.306 29.9943 146.17 30.2775 145.898 30.4735C145.625 30.6695 145.235 30.7693 144.729 30.7693C144.222 30.7693 143.81 30.6931 143.501 30.5406V29.8473C143.95 30.0524 144.37 30.154 144.756 30.154C145.257 30.154 145.507 30.0052 145.507 29.7076C145.507 29.6114 145.48 29.5333 145.424 29.468C145.369 29.4045 145.277 29.3391 145.152 29.2701C145.025 29.2012 144.848 29.1249 144.622 29.0378C144.182 28.869 143.883 28.7021 143.727 28.5333C143.57 28.3645 143.493 28.1467 143.493 27.8781C143.493 27.555 143.626 27.3045 143.889 27.1267C144.152 26.9488 144.513 26.8599 144.966 26.8599C145.419 26.8599 145.842 26.9506 146.244 27.1285L145.98 27.7329C145.568 27.5641 145.22 27.4806 144.938 27.4806C144.509 27.4806 144.294 27.6022 144.294 27.8418C144.294 27.9597 144.349 28.0596 144.462 28.1412C144.574 28.2229 144.817 28.3354 145.194 28.4788C145.511 28.5986 145.739 28.7093 145.883 28.8091C146.027 28.909 146.131 29.0251 146.201 29.1558C146.271 29.2865 146.305 29.4426 146.305 29.6241" fill="white"/>
<path d="M147.137 25.927C147.137 25.7836 147.177 25.6729 147.256 25.5966C147.336 25.5186 147.45 25.4805 147.597 25.4805C147.744 25.4805 147.851 25.5186 147.93 25.5966C148.009 25.6747 148.05 25.7854 148.05 25.927C148.05 26.0685 148.009 26.1702 147.93 26.25C147.851 26.3281 147.739 26.368 147.597 26.368C147.455 26.368 147.336 26.3281 147.256 26.25C147.177 26.172 147.137 26.0649 147.137 25.927ZM147.998 30.6985H147.185V26.9252H147.998V30.6985Z" fill="white"/>
<path d="M151.556 30.7003L151.394 30.1758H151.366C151.182 30.4045 150.996 30.5624 150.808 30.6441C150.622 30.7276 150.381 30.7693 150.088 30.7693C149.713 30.7693 149.418 30.6695 149.208 30.4698C148.997 30.2702 148.892 29.9871 148.892 29.6204C148.892 29.232 149.039 28.938 149.332 28.7402C149.624 28.5423 150.072 28.4353 150.67 28.4153L151.331 28.3953V28.1939C151.331 27.9525 151.274 27.7728 151.16 27.653C151.046 27.5332 150.869 27.4733 150.628 27.4733C150.433 27.4733 150.243 27.5024 150.064 27.5586C149.884 27.6149 149.711 27.682 149.545 27.7601L149.282 27.1866C149.49 27.0795 149.716 26.9978 149.963 26.9434C150.21 26.8871 150.444 26.8599 150.663 26.8599C151.149 26.8599 151.517 26.9633 151.766 27.1739C152.014 27.3826 152.137 27.7111 152.137 28.1594V30.7003H151.556ZM150.344 30.154C150.639 30.154 150.876 30.0724 151.055 29.9108C151.233 29.7475 151.324 29.5206 151.324 29.2266V28.8999L150.832 28.9199C150.449 28.9326 150.171 28.9961 149.996 29.1086C149.821 29.2211 149.735 29.3936 149.735 29.6259C149.735 29.7947 149.785 29.9235 149.888 30.0161C149.989 30.1087 150.142 30.154 150.344 30.154Z" fill="white"/>
</svg>
