<svg width="321" height="44" viewBox="0 0 321 44" fill="none" xmlns="http://www.w3.org/2000/svg">
<path fill-rule="evenodd" clip-rule="evenodd" d="M31.8266 4.0029C31.9676 3.98904 32.1089 4.02519 32.2258 4.10502C31.8173 9.20211 28.67 11.746 22.9415 11.3561V33.9634C27.0823 32.9885 29.6819 30.3239 31.6224 27.093L32.1052 27.2879C30.7961 32.6079 27.9551 36.5815 23.0344 38.1784C20.1545 39.0124 17.1155 39.1367 14.1771 38.5405C11.7097 38.0407 9.39635 36.962 7.42745 35.3932C5.92807 34.1918 4.70443 32.6822 3.83943 30.9666C2.97443 29.251 2.48828 27.3695 2.41392 25.4497C2.31423 23.9232 2.43936 22.3904 2.78529 20.9003C3.37373 18.4579 4.51037 16.1815 6.10908 14.2435C7.60406 12.4354 9.32666 10.8282 11.234 9.46207C8.95506 8.93683 6.56803 9.15147 4.41933 10.0748C2.95627 10.8891 1.72088 12.0575 0.826304 13.4729C0.714892 13.64 0.519921 14.0021 0.399225 14.03C0.266839 14.047 0.133035 14.0501 0 14.0392C0.133362 12.5647 0.573009 11.1342 1.29082 9.83923C2.00863 8.54429 2.98881 7.41342 4.16866 6.51894C6.93655 4.71608 10.2439 3.92862 13.5272 4.29071C17.9837 4.57852 21.6974 5.92475 25.8661 6.53751C26.7476 6.70296 27.6491 6.73426 28.54 6.63036C30.2297 6.37039 31.0375 5.3027 31.7895 4.04932C31.8081 4.04003 31.7988 4.0029 31.8266 4.0029ZM7.55743 19.9069C7.13035 25.0968 8.94079 28.6342 11.5961 30.9367C12.1137 30.4918 12.534 29.945 12.8309 29.3305C13.1194 28.5372 13.2488 27.6949 13.2116 26.8516V9.76845C13.0023 9.75183 12.7945 9.72081 12.5895 9.67561C9.68631 12.3327 7.8898 15.9854 7.55743 19.9069ZM18.4201 10.6783V17.3445C18.53 19.513 18.4585 21.6869 18.2065 23.8435C17.5195 27.65 15.0963 29.6647 12.7381 31.763C14.7156 33.5363 17.8166 34.4647 21.6696 34.1769V11.2539C20.5833 11.0497 19.5342 10.8083 18.4386 10.6133C18.4294 10.604 18.4108 10.6412 18.4201 10.6783Z" fill="white"/>
<path fill-rule="evenodd" clip-rule="evenodd" d="M36.8773 5.49765C37.2781 5.45652 37.6809 5.55384 38.0188 5.77343C38.3566 5.99301 38.609 6.32162 38.7342 6.70461C39.3005 8.1901 38.9291 10.5762 37.6851 11.1054C37.2535 11.2755 36.7786 11.3023 36.3306 11.182C35.8826 11.0616 35.4851 10.8004 35.1969 10.4369C34.8448 9.84299 34.6768 9.15803 34.7141 8.46863C34.7141 6.82531 35.1504 5.49765 36.8773 5.49765Z" fill="white"/>
<path fill-rule="evenodd" clip-rule="evenodd" d="M44.7413 14.3177C45.0528 13.5771 45.5598 12.9352 46.2082 12.4608C46.5385 12.3002 46.9068 12.2342 47.2723 12.2703C47.6377 12.3063 47.9861 12.443 48.2786 12.6651C48.7673 13.0733 49.147 13.5965 49.3834 14.1877C50.4431 17.1451 50.6363 20.3435 49.9405 23.407C49.8412 24.0551 49.6104 24.676 49.2623 25.2316C48.9143 25.7872 48.4563 26.2658 47.9165 26.6379C47.5423 26.8188 47.1228 26.8845 46.7112 26.8267C46.2997 26.7688 45.9145 26.59 45.6047 26.313C45.0842 25.7285 44.7257 25.0179 44.5649 24.2519V26.8608C43.095 26.6364 41.6131 26.5 40.127 26.4523V25.7838H40.9533V6.92736H40.1084V6.27745C41.603 6.22178 43.092 6.06358 44.5649 5.80396C44.7227 5.80396 44.7041 5.80395 44.7134 5.98036C44.797 7.3173 44.7134 8.70066 44.7134 10.019L44.7413 14.3177ZM44.7413 16.518V22.8128C44.7567 23.2974 44.8189 23.7793 44.927 24.2519C45.0198 24.6511 45.2241 25.1803 45.6233 25.1803C46.0225 25.1803 46.0782 24.5675 46.1339 24.1498C46.2546 22.6364 46.2825 21.1172 46.2175 19.6004V16.4623C46.2285 15.9632 46.2067 15.4639 46.1525 14.9676C46.0689 14.4291 45.9575 13.9463 45.5211 14.0391C44.8155 14.197 44.797 15.7103 44.7598 16.518H44.7413Z" fill="white"/>
<path fill-rule="evenodd" clip-rule="evenodd" d="M119.071 11.9873C119.118 13.6771 119.155 15.4689 119.164 17.1308H118.839C118.539 15.7001 117.867 14.3741 116.889 13.2871C116.379 12.8322 115.209 12.3587 114.847 13.2221C114.7 13.5859 114.663 13.9847 114.741 14.3692C114.818 14.7537 115.007 15.107 115.283 15.3854C115.478 15.5525 115.738 15.6825 115.952 15.831C116.646 16.2551 117.302 16.7398 117.911 17.2794C118.697 18.0875 119.224 19.1125 119.424 20.2225C119.656 21.573 119.637 22.9547 119.368 24.2983C119.301 24.8634 119.087 25.4012 118.748 25.8586C118.41 26.3161 117.958 26.6775 117.437 26.9072C117.12 27.0213 116.789 27.0901 116.453 27.1115C116.026 27.0807 115.618 26.9293 115.274 26.6751C114.93 26.4708 114.615 26.2944 114.29 26.0623C113.955 26.2944 113.621 26.573 113.278 26.8515C113.183 26.9615 113.061 27.0438 112.924 27.0896C112.786 27.1354 112.639 27.1429 112.498 27.1115C112.498 25.2546 112.396 23.3977 112.405 21.5409H112.665C112.86 22.0886 113.008 22.6364 113.222 23.1471C113.602 24.1266 114.213 24.9995 115.005 25.691C115.209 25.858 115.433 25.9984 115.673 26.1088C115.939 26.2488 116.236 26.3221 116.536 26.3223C116.793 26.2885 117.029 26.1625 117.2 25.9678C117.371 25.7731 117.465 25.5229 117.465 25.2639C117.586 23.9734 116.843 23.5184 116.082 22.9892C115.552 22.6179 115.014 22.2093 114.475 21.8287C114.29 21.7173 114.113 21.5966 113.937 21.4666C113.556 21.1107 113.241 20.6894 113.008 20.2225C112.303 18.4984 112.182 16.5904 112.665 14.7912C112.755 14.272 112.951 13.7768 113.24 13.3362C113.529 12.8955 113.905 12.5186 114.345 12.2287C114.894 12.0247 115.495 12.0084 116.054 12.1823C116.548 12.3491 117.015 12.5902 117.437 12.8972C117.864 12.6094 118.263 12.2937 118.681 11.9688L119.071 11.9873Z" fill="white"/>
<path fill-rule="evenodd" clip-rule="evenodd" d="M85.2667 25.9046H86.1302V26.5823H80.931V25.9231H81.4788V16.7038C81.5066 16.1998 81.5066 15.6945 81.4788 15.1905C81.4788 14.7448 81.3209 14.1971 80.9588 14.1692C80.5967 14.1413 80.3368 14.6798 80.2347 15.0419C80.1153 15.4824 80.0376 15.9331 80.0025 16.3881C79.919 17.4001 80.0025 18.5421 80.0025 19.5448V25.9046H80.5782V26.5823H75.3047V25.9231H76.131V13.1572H75.3418V12.4052C76.9573 12.4052 78.3592 12.1174 79.984 12.0988C79.984 12.9808 79.984 13.9557 79.984 14.8377C80.476 13.6586 81.0702 12.1638 82.5465 12.0524C84.4033 11.9038 84.9511 13.5007 85.1646 15.0976C85.2776 16.2669 85.321 17.4419 85.2946 18.6164L85.2667 25.9046Z" fill="white"/>
<path d="M35.4499 32.8668L34.3253 29.6592H34.3062C34.3443 30.1337 34.3443 30.5892 34.3443 31.0067V32.8668H33.7725V29.0328H34.6684L35.7358 32.0886H35.7549L36.8605 29.0328H37.7564V32.8668H37.1464V30.9688C37.1464 30.779 37.1464 30.5322 37.1655 30.2286C37.1845 29.9249 37.1845 29.7351 37.1845 29.6782H37.1655L36.0027 32.8857H35.4499V32.8668Z" fill="white"/>
<path d="M40.5205 32.8663L40.4062 32.4677H40.3871C40.2537 32.6385 40.1012 32.7714 39.9678 32.8283C39.8343 32.8853 39.6437 32.9232 39.415 32.9232C39.129 32.9232 38.9003 32.8473 38.7478 32.6955C38.5953 32.5436 38.5 32.3159 38.5 32.0502C38.5 31.7465 38.6144 31.5187 38.8431 31.3669C39.0719 31.2151 39.415 31.1391 39.8724 31.1202L40.368 31.1012V30.9493C40.368 30.7595 40.3299 30.6267 40.2346 30.5318C40.1393 30.4369 40.0059 30.3989 39.8343 30.3989C39.6818 30.3989 39.5484 30.4179 39.3959 30.4559C39.2625 30.4938 39.129 30.5508 38.9956 30.6077L38.7859 30.1712C38.9384 30.0953 39.11 30.0193 39.3006 29.9814C39.4912 29.9434 39.6628 29.9244 39.8343 29.9244C40.1965 29.9244 40.4824 30.0004 40.673 30.1712C40.8637 30.323 40.959 30.5887 40.959 30.9304V32.8853H40.5205V32.8663ZM39.6056 32.4488C39.8343 32.4488 40.0059 32.3918 40.1393 32.259C40.2727 32.1261 40.349 31.9553 40.349 31.7275V31.4808L39.9678 31.4998C39.6818 31.5187 39.4721 31.5567 39.3387 31.6516C39.2053 31.7465 39.1481 31.8794 39.1481 32.0502C39.1481 32.183 39.1862 32.2779 39.2625 32.3539C39.3197 32.4108 39.434 32.4488 39.6056 32.4488Z" fill="white"/>
<path d="M42.9228 32.4107C43.0753 32.4107 43.2278 32.3917 43.3803 32.3348V32.7903C43.304 32.8283 43.2278 32.8473 43.1134 32.8662C42.999 32.8852 42.8847 32.9042 42.7703 32.9042C42.1794 32.9042 41.8935 32.6005 41.8935 31.9742V30.4178H41.4932V30.1521L41.9125 29.9244L42.1222 29.317H42.5034V29.9623H43.3422V30.4368H42.5034V31.9932C42.5034 32.145 42.5416 32.2589 42.6178 32.3158C42.6941 32.3728 42.7894 32.4107 42.9228 32.4107Z" fill="white"/>
<path d="M45.7823 32.8663L45.6679 32.4677H45.6488C45.5154 32.6385 45.3629 32.7714 45.2295 32.8283C45.096 32.8853 44.9054 32.9232 44.6767 32.9232C44.3908 32.9232 44.162 32.8473 44.0095 32.6955C43.857 32.5436 43.7617 32.3159 43.7617 32.0502C43.7617 31.7465 43.8761 31.5187 44.1048 31.3669C44.3336 31.2151 44.6767 31.1391 45.1342 31.1202L45.6298 31.1012V30.9493C45.6298 30.7595 45.5916 30.6267 45.4963 30.5318C45.401 30.4369 45.2676 30.3989 45.096 30.3989C44.9435 30.3989 44.8101 30.4179 44.6576 30.4559C44.5242 30.4938 44.3908 30.5508 44.2573 30.6077L44.0476 30.1712C44.2001 30.0953 44.3717 30.0193 44.5623 29.9814C44.7529 29.9434 44.9245 29.9244 45.096 29.9244C45.4582 29.9244 45.7441 30.0004 45.9348 30.1712C46.1254 30.323 46.2207 30.5887 46.2207 30.9304V32.8853H45.7823V32.8663ZM44.8482 32.4488C45.077 32.4488 45.2485 32.3918 45.382 32.259C45.5154 32.1261 45.5916 31.9553 45.5916 31.7275V31.4808L45.2104 31.4998C44.9245 31.5187 44.7148 31.5567 44.5814 31.6516C44.4479 31.7465 44.3908 31.8794 44.3908 32.0502C44.3908 32.183 44.4289 32.2779 44.5051 32.3539C44.5814 32.4108 44.6957 32.4488 44.8482 32.4488Z" fill="white"/>
<path d="M48.5459 32.8662V29.0323H49.1749V32.3348H50.8142V32.8662H48.5459Z" fill="white"/>
<path d="M53.9983 31.4046C53.9983 31.8791 53.884 32.2397 53.6362 32.5054C53.3884 32.7711 53.0452 32.904 52.6068 32.904C52.34 32.904 52.0922 32.847 51.8825 32.7142C51.6728 32.6003 51.5203 32.4105 51.4059 32.1827C51.2916 31.955 51.2344 31.6893 51.2344 31.3856C51.2344 30.9111 51.3487 30.5505 51.5965 30.2847C51.8444 30.019 52.1875 29.8862 52.6259 29.8862C53.0452 29.8862 53.3884 30.019 53.6362 30.2847C53.884 30.5505 53.9983 30.949 53.9983 31.4046ZM51.8825 31.4046C51.8825 32.0688 52.1303 32.4105 52.6259 32.4105C53.1215 32.4105 53.3693 32.0688 53.3693 31.4046C53.3693 30.7403 53.1215 30.4176 52.6259 30.4176C52.359 30.4176 52.1684 30.5125 52.054 30.6833C51.9397 30.8541 51.8825 31.0819 51.8825 31.4046Z" fill="white"/>
<path d="M55.3136 31.3289L55.6567 30.8924L56.5336 29.9624H57.2388L56.057 31.215L57.296 32.8663H56.5717L55.6377 31.5946L55.2945 31.8793V32.8663H54.6846V28.7856H55.2945V30.7785L55.3136 31.3289Z" fill="white"/>
<path d="M59.6211 32.8663L59.5068 32.4677H59.4877C59.3543 32.6385 59.2018 32.7714 59.0684 32.8283C58.9349 32.8853 58.7443 32.9232 58.5156 32.9232C58.2296 32.9232 58.0009 32.8473 57.8484 32.6955C57.6959 32.5436 57.6006 32.3159 57.6006 32.0502C57.6006 31.7465 57.715 31.5187 57.9437 31.3669C58.1724 31.2151 58.5156 31.1391 58.973 31.1202L59.4686 31.1012V30.9493C59.4686 30.7595 59.4305 30.6267 59.3352 30.5318C59.2399 30.4369 59.1065 30.3989 58.9349 30.3989C58.7824 30.3989 58.649 30.4179 58.4965 30.4559C58.3631 30.4938 58.2296 30.5508 58.0962 30.6077L57.8865 30.1712C58.039 30.0953 58.2106 30.0193 58.4012 29.9814C58.5918 29.9434 58.7634 29.9244 58.9349 29.9244C59.2971 29.9244 59.583 30.0004 59.7736 30.1712C59.9643 30.323 60.0596 30.5887 60.0596 30.9304V32.8853H59.6211V32.8663ZM58.7062 32.4488C58.9349 32.4488 59.1065 32.3918 59.2399 32.259C59.3733 32.1261 59.4496 31.9553 59.4496 31.7275V31.4808L59.0684 31.4998C58.7824 31.5187 58.5727 31.5567 58.4393 31.6516C58.3059 31.7465 58.2487 31.8794 58.2487 32.0502C58.2487 32.183 58.2868 32.2779 58.3631 32.3539C58.4202 32.4108 58.5346 32.4488 58.7062 32.4488Z" fill="white"/>
<path d="M61.5455 32.8663H60.9355V28.7856H61.5455V32.8663Z" fill="white"/>
<path d="M65.569 32.8662L64.4444 29.6586H64.4253C64.4635 30.1331 64.4635 30.5886 64.4635 31.0062V32.8662H63.8916V29.0323H64.7875L65.855 32.088H65.874L66.9796 29.0323H67.8755V32.8662H67.2655V30.9682C67.2655 30.7784 67.2655 30.5317 67.2846 30.228C67.3036 29.9243 67.3036 29.7345 67.3036 29.6776H67.2846L66.1218 32.8852H65.569V32.8662Z" fill="white"/>
<path d="M70.0854 32.9232C69.6279 32.9232 69.2848 32.7904 69.018 32.5247C68.7702 32.259 68.6367 31.8983 68.6367 31.4428C68.6367 30.9683 68.7511 30.5887 68.9989 30.323C69.2276 30.0573 69.5707 29.9244 69.971 29.9244C70.3523 29.9244 70.6573 30.0383 70.886 30.2661C71.1147 30.4938 71.2291 30.8165 71.2291 31.234V31.5757H69.2848C69.2848 31.8604 69.3611 32.0692 69.5136 32.221C69.6661 32.3728 69.8567 32.4488 70.1235 32.4488C70.2951 32.4488 70.4476 32.4298 70.6001 32.3918C70.7526 32.3539 70.9051 32.2969 71.0766 32.221V32.7145C70.9241 32.7904 70.7716 32.8283 70.6191 32.8663C70.4666 32.9043 70.2951 32.9232 70.0854 32.9232ZM69.971 30.38C69.7804 30.38 69.6089 30.4369 69.4945 30.5698C69.3801 30.7026 69.3039 30.8734 69.2848 31.1202H70.6001C70.6001 30.8734 70.5429 30.7026 70.4285 30.5698C70.3332 30.4369 70.1807 30.38 69.971 30.38Z" fill="white"/>
<path d="M74.4903 32.8662H73.8613V31.0821C73.8613 30.8544 73.8232 30.6836 73.7279 30.5887C73.6326 30.4748 73.4991 30.4178 73.2894 30.4178C73.0226 30.4178 72.832 30.4938 72.7176 30.6456C72.6032 30.7974 72.527 31.0632 72.527 31.4238V32.8662H71.917V29.9623H72.3935L72.4888 30.3419H72.527C72.6223 30.2091 72.7366 30.0952 72.9082 30.0193C73.0607 29.9434 73.2513 29.9054 73.4419 29.9054C74.1472 29.9054 74.4903 30.266 74.4903 30.9683V32.8662Z" fill="white"/>
<path d="M75.061 34.1567C74.8704 34.1567 74.7179 34.1377 74.6035 34.0998V33.6063C74.7179 33.6442 74.8513 33.6442 74.9657 33.6442C75.2326 33.6442 75.366 33.4924 75.366 33.1887V29.9432H75.976V33.2267C75.976 33.5304 75.8997 33.7581 75.7472 33.91C75.5757 34.0808 75.3469 34.1567 75.061 34.1567ZM75.3279 29.184C75.3279 29.0701 75.366 28.9942 75.4232 28.9372C75.4804 28.8803 75.5757 28.8423 75.69 28.8423C75.8044 28.8423 75.8807 28.8803 75.9379 28.9372C75.995 28.9942 76.0332 29.0891 76.0332 29.184C76.0332 29.2979 75.995 29.3738 75.9379 29.4307C75.8807 29.4877 75.7854 29.5256 75.69 29.5256C75.5757 29.5256 75.4994 29.4877 75.4232 29.4307C75.3469 29.3738 75.3279 29.2979 75.3279 29.184Z" fill="white"/>
<path d="M78.6817 32.8663L78.5673 32.4677H78.5482C78.4148 32.6385 78.2623 32.7714 78.1289 32.8283C77.9955 32.8853 77.8048 32.9232 77.5761 32.9232C77.2902 32.9232 77.0614 32.8473 76.9089 32.6955C76.7564 32.5436 76.6611 32.3159 76.6611 32.0502C76.6611 31.7465 76.7755 31.5187 77.0042 31.3669C77.233 31.2151 77.5761 31.1391 78.0336 31.1202L78.5292 31.1012V30.9493C78.5292 30.7595 78.4911 30.6267 78.3958 30.5318C78.3004 30.4369 78.167 30.3989 77.9955 30.3989C77.843 30.3989 77.7095 30.4179 77.557 30.4559C77.4236 30.4938 77.2902 30.5508 77.1567 30.6077L76.9471 30.1712C77.0996 30.0953 77.2711 30.0193 77.4617 29.9814C77.6523 29.9434 77.8239 29.9244 77.9955 29.9244C78.3576 29.9244 78.6436 30.0004 78.8342 30.1712C79.0248 30.323 79.1201 30.5887 79.1201 30.9304V32.8853H78.6817V32.8663ZM77.7667 32.4488C77.9955 32.4488 78.167 32.3918 78.3004 32.259C78.4339 32.1261 78.5101 31.9553 78.5101 31.7275V31.4808L78.1289 31.4998C77.843 31.5187 77.6333 31.5567 77.4999 31.6516C77.3664 31.7465 77.3092 31.8794 77.3092 32.0502C77.3092 32.183 77.3474 32.2779 77.4236 32.3539C77.4999 32.4108 77.6142 32.4488 77.7667 32.4488Z" fill="white"/>
<path d="M82.5518 32.8662H81.9228V31.0821C81.9228 30.8544 81.8847 30.6836 81.7894 30.5887C81.6941 30.4748 81.5606 30.4178 81.351 30.4178C81.0841 30.4178 80.8935 30.4938 80.7791 30.6456C80.6647 30.7974 80.5885 31.0632 80.5885 31.4238V32.8662H79.9785V29.9623H80.4551L80.5504 30.3419H80.5885C80.6838 30.2091 80.7982 30.0952 80.9697 30.0193C81.1222 29.9434 81.3128 29.9054 81.5034 29.9054C82.2087 29.9054 82.5518 30.266 82.5518 30.9683V32.8662Z" fill="white"/>
<path d="M85.8871 29.9621V30.3037L85.3915 30.3986C85.4296 30.4556 85.4677 30.5315 85.5059 30.6264C85.544 30.7213 85.544 30.8162 85.544 30.9111C85.544 31.2148 85.4487 31.4425 85.239 31.6133C85.0293 31.7842 84.7434 31.879 84.3812 31.879C84.2859 31.879 84.2097 31.8791 84.1334 31.8601C84 31.936 83.9237 32.0309 83.9237 32.1448C83.9237 32.2207 83.9618 32.2586 84.019 32.2966C84.0762 32.3346 84.1906 32.3535 84.3621 32.3535H84.8768C85.2009 32.3535 85.4487 32.4295 85.6012 32.5623C85.7727 32.6952 85.849 32.904 85.849 33.1507C85.849 33.4734 85.7155 33.7391 85.4487 33.9099C85.1818 34.0807 84.7815 34.1756 84.2668 34.1756C83.8665 34.1756 83.5615 34.0997 83.3519 33.9668C83.1422 33.834 83.0469 33.6252 83.0469 33.3595C83.0469 33.1887 83.1041 33.0368 83.2184 32.904C83.3328 32.7901 83.4853 32.6952 83.695 32.6572C83.6187 32.6193 83.5425 32.5623 83.4853 32.4864C83.4281 32.4105 83.409 32.3346 83.409 32.2397C83.409 32.1258 83.4472 32.0309 83.5044 31.955C83.5615 31.8791 83.6569 31.8031 83.7712 31.7272C83.6187 31.6703 83.5044 31.5564 83.409 31.4046C83.3137 31.2527 83.2756 31.0819 83.2756 30.8921C83.2756 30.5694 83.3709 30.3417 83.5806 30.1519C83.7712 29.9811 84.0572 29.8862 84.4384 29.8862C84.5146 29.8862 84.61 29.8862 84.7053 29.9052C84.8006 29.9241 84.8578 29.9241 84.9149 29.9431H85.8871V29.9621ZM83.5806 33.3215C83.5806 33.4544 83.6378 33.5493 83.7522 33.6252C83.8665 33.7011 84.0381 33.7391 84.2668 33.7391C84.6099 33.7391 84.8578 33.6821 85.0293 33.5872C85.2009 33.4923 85.2771 33.3595 85.2771 33.2076C85.2771 33.0748 85.239 32.9989 85.1437 32.9419C85.0484 32.885 84.8768 32.866 84.6481 32.866H84.1715C84 32.866 83.8475 32.904 83.7522 32.9989C83.6378 33.0558 83.5806 33.1697 83.5806 33.3215ZM83.8475 30.8921C83.8475 31.0819 83.8856 31.2148 83.9809 31.3097C84.0762 31.4046 84.2096 31.4615 84.3812 31.4615C84.7434 31.4615 84.9149 31.2717 84.9149 30.8921C84.9149 30.7023 84.8768 30.5505 84.7815 30.4556C84.6862 30.3607 84.5528 30.3037 84.3812 30.3037C84.2096 30.3037 84.0572 30.3607 83.9809 30.4556C83.9047 30.5505 83.8475 30.7023 83.8475 30.8921Z" fill="white"/>
<path d="M87.0138 31.3289L87.3569 30.8924L88.2338 29.9624H88.939L87.7572 31.215L88.9962 32.8663H88.2719L87.3379 31.5946L86.9947 31.8793V32.8663H86.3848V28.7856H86.9947V30.7785L87.0138 31.3289Z" fill="white"/>
<path d="M91.3399 32.8663L91.2255 32.4677H91.2065C91.073 32.6385 90.9205 32.7714 90.7871 32.8283C90.6537 32.8853 90.4631 32.9232 90.2343 32.9232C89.9484 32.9232 89.7196 32.8473 89.5671 32.6955C89.4146 32.5436 89.3193 32.3159 89.3193 32.0502C89.3193 31.7465 89.4337 31.5187 89.6625 31.3669C89.8912 31.2151 90.2343 31.1391 90.6918 31.1202L91.1874 31.1012V30.9493C91.1874 30.7595 91.1493 30.6267 91.054 30.5318C90.9587 30.4369 90.8252 30.3989 90.6537 30.3989C90.5012 30.3989 90.3677 30.4179 90.2152 30.4559C90.0818 30.4938 89.9484 30.5508 89.8149 30.6077L89.6053 30.1712C89.7578 30.0953 89.9293 30.0193 90.1199 29.9814C90.3106 29.9434 90.4821 29.9244 90.6537 29.9244C91.0158 29.9244 91.3018 30.0004 91.4924 30.1712C91.683 30.323 91.7783 30.5887 91.7783 30.9304V32.8853H91.3399V32.8663ZM90.4059 32.4488C90.6346 32.4488 90.8062 32.3918 90.9396 32.259C91.073 32.1261 91.1493 31.9553 91.1493 31.7275V31.4808L90.768 31.4998C90.4821 31.5187 90.2724 31.5567 90.139 31.6516C90.0056 31.7465 89.9484 31.8794 89.9484 32.0502C89.9484 32.183 89.9865 32.2779 90.0627 32.3539C90.139 32.4108 90.2534 32.4488 90.4059 32.4488Z" fill="white"/>
<path d="M94.6959 32.866L94.6006 32.4864H94.5815C94.4862 32.6193 94.3719 32.7331 94.2194 32.8091C94.0669 32.885 93.8763 32.9229 93.6666 32.9229C93.3044 32.9229 93.0566 32.828 92.885 32.6572C92.7135 32.4864 92.6182 32.2207 92.6182 31.8601V29.9621H93.2472V31.7462C93.2472 31.974 93.2853 32.1258 93.3806 32.2397C93.476 32.3536 93.6094 32.4105 93.8191 32.4105C94.0859 32.4105 94.2766 32.3346 94.3909 32.1827C94.5053 32.0309 94.5815 31.7652 94.5815 31.4046V29.9621H95.2106V32.866H94.6959Z" fill="white"/>
<path d="M97.5342 32.8662V29.0323H98.1632V32.8662H97.5342Z" fill="white"/>
<path d="M101.689 32.8662H101.06V31.0821C101.06 30.8544 101.021 30.6836 100.926 30.5887C100.831 30.4748 100.697 30.4178 100.488 30.4178C100.221 30.4178 100.03 30.4938 99.9158 30.6456C99.8015 30.7974 99.7252 31.0632 99.7252 31.4238V32.8662H99.1152V29.9623H99.5918L99.6871 30.3419H99.7252C99.8205 30.2091 99.9349 30.0952 100.106 30.0193C100.259 29.9434 100.45 29.9054 100.64 29.9054C101.345 29.9054 101.689 30.266 101.689 30.9683V32.8662Z" fill="white"/>
<path d="M103.522 32.923C103.16 32.923 102.874 32.7901 102.664 32.5244C102.455 32.2587 102.359 31.8981 102.359 31.4236C102.359 30.9491 102.455 30.5695 102.664 30.3038C102.874 30.0381 103.16 29.9052 103.522 29.9052C103.903 29.9052 104.189 30.0381 104.399 30.3228H104.437C104.399 30.114 104.399 29.9432 104.399 29.8293V28.7664H105.028V32.8471H104.551L104.437 32.4675H104.399C104.208 32.7712 103.922 32.923 103.522 32.923ZM103.694 32.4105C103.942 32.4105 104.132 32.3346 104.246 32.2018C104.361 32.0499 104.418 31.8222 104.418 31.4995V31.4236C104.418 31.063 104.361 30.7973 104.246 30.6454C104.132 30.4936 103.942 30.4177 103.694 30.4177C103.484 30.4177 103.312 30.5126 103.198 30.6834C103.084 30.8542 103.027 31.1009 103.027 31.4426C103.027 31.7652 103.084 32.012 103.198 32.1828C103.293 32.3346 103.465 32.4105 103.694 32.4105Z" fill="white"/>
<path d="M108.494 31.4046C108.494 31.8791 108.38 32.2397 108.132 32.5054C107.884 32.7711 107.541 32.904 107.103 32.904C106.836 32.904 106.588 32.847 106.379 32.7142C106.169 32.6003 106.016 32.4105 105.902 32.1827C105.788 31.955 105.73 31.6893 105.73 31.3856C105.73 30.9111 105.845 30.5505 106.093 30.2847C106.34 30.019 106.684 29.8862 107.122 29.8862C107.541 29.8862 107.884 30.019 108.132 30.2847C108.38 30.5505 108.494 30.949 108.494 31.4046ZM106.379 31.4046C106.379 32.0688 106.626 32.4105 107.122 32.4105C107.618 32.4105 107.865 32.0688 107.865 31.4046C107.865 30.7403 107.618 30.4176 107.122 30.4176C106.855 30.4176 106.664 30.5125 106.55 30.6833C106.436 30.8541 106.379 31.0819 106.379 31.4046Z" fill="white"/>
<path d="M111.775 32.8662H111.145V31.0821C111.145 30.8544 111.107 30.6836 111.012 30.5887C110.917 30.4748 110.783 30.4178 110.574 30.4178C110.307 30.4178 110.116 30.4938 110.002 30.6456C109.887 30.7974 109.811 31.0632 109.811 31.4238V32.8662H109.201V29.9623H109.678L109.773 30.3419H109.811C109.906 30.2091 110.021 30.0952 110.192 30.0193C110.345 29.9434 110.535 29.9054 110.726 29.9054C111.431 29.9054 111.775 30.266 111.775 30.9683V32.8662Z" fill="white"/>
<path d="M113.909 32.9232C113.451 32.9232 113.108 32.7904 112.841 32.5247C112.574 32.259 112.46 31.8983 112.46 31.4428C112.46 30.9683 112.574 30.5887 112.822 30.323C113.051 30.0573 113.394 29.9244 113.794 29.9244C114.176 29.9244 114.481 30.0383 114.709 30.2661C114.938 30.4938 115.052 30.8165 115.052 31.234V31.5757H113.108C113.108 31.8604 113.184 32.0692 113.337 32.221C113.489 32.3728 113.68 32.4488 113.947 32.4488C114.118 32.4488 114.271 32.4298 114.423 32.3918C114.576 32.3539 114.728 32.2969 114.9 32.221V32.7145C114.747 32.7904 114.595 32.8283 114.442 32.8663C114.29 32.9043 114.099 32.9232 113.909 32.9232ZM113.794 30.38C113.604 30.38 113.432 30.4369 113.318 30.5698C113.203 30.7026 113.127 30.8734 113.108 31.1202H114.423C114.423 30.8734 114.366 30.7026 114.252 30.5698C114.137 30.4369 113.985 30.38 113.794 30.38Z" fill="white"/>
<path d="M117.701 32.0311C117.701 32.3158 117.606 32.5246 117.396 32.6764C117.187 32.8283 116.901 32.9042 116.5 32.9042C116.119 32.9042 115.795 32.8473 115.566 32.7334V32.202C115.91 32.3538 116.234 32.4297 116.519 32.4297C116.901 32.4297 117.091 32.3158 117.091 32.0881C117.091 32.0122 117.072 31.9552 117.034 31.8983C116.996 31.8413 116.92 31.8034 116.824 31.7464C116.729 31.6895 116.596 31.6326 116.424 31.5756C116.081 31.4428 115.852 31.3099 115.738 31.196C115.624 31.0632 115.566 30.8923 115.566 30.6836C115.566 30.4368 115.662 30.247 115.871 30.1142C116.081 29.9813 116.348 29.9054 116.691 29.9054C117.034 29.9054 117.358 29.9813 117.663 30.1142L117.454 30.5697C117.129 30.4368 116.882 30.3799 116.653 30.3799C116.329 30.3799 116.157 30.4748 116.157 30.6646C116.157 30.7595 116.195 30.8354 116.291 30.8923C116.367 30.9493 116.558 31.0442 116.844 31.1581C117.091 31.253 117.263 31.3289 117.377 31.4048C117.492 31.4807 117.568 31.5756 117.625 31.6705C117.682 31.7654 117.701 31.8983 117.701 32.0311Z" fill="white"/>
<path d="M118.331 29.184C118.331 29.0701 118.369 28.9942 118.426 28.9372C118.484 28.8803 118.579 28.8423 118.693 28.8423C118.808 28.8423 118.884 28.8803 118.941 28.9372C118.998 28.9942 119.036 29.0891 119.036 29.184C119.036 29.2979 118.998 29.3738 118.941 29.4307C118.884 29.4877 118.789 29.5256 118.693 29.5256C118.579 29.5256 118.503 29.4877 118.426 29.4307C118.369 29.3738 118.331 29.2979 118.331 29.184ZM118.998 32.8661H118.388V29.9622H118.998V32.8661Z" fill="white"/>
<path d="M121.704 32.8663L121.59 32.4677H121.571C121.437 32.6385 121.285 32.7714 121.151 32.8283C121.018 32.8853 120.827 32.9232 120.599 32.9232C120.313 32.9232 120.084 32.8473 119.931 32.6955C119.779 32.5436 119.684 32.3159 119.684 32.0502C119.684 31.7465 119.798 31.5187 120.027 31.3669C120.255 31.2151 120.599 31.1391 121.056 31.1202L121.552 31.1012V30.9493C121.552 30.7595 121.514 30.6267 121.418 30.5318C121.323 30.4369 121.189 30.3989 121.018 30.3989C120.865 30.3989 120.732 30.4179 120.579 30.4559C120.446 30.4938 120.313 30.5508 120.179 30.6077L119.97 30.1712C120.122 30.0953 120.294 30.0193 120.484 29.9814C120.675 29.9434 120.846 29.9244 121.018 29.9244C121.38 29.9244 121.666 30.0004 121.857 30.1712C122.047 30.323 122.143 30.5887 122.143 30.9304V32.8853H121.704V32.8663ZM120.77 32.4488C120.999 32.4488 121.17 32.3918 121.304 32.259C121.437 32.1261 121.514 31.9553 121.514 31.7275V31.4808L121.132 31.4998C120.846 31.5187 120.637 31.5567 120.503 31.6516C120.37 31.7465 120.313 31.8794 120.313 32.0502C120.313 32.183 120.351 32.2779 120.427 32.3539C120.503 32.4108 120.618 32.4488 120.77 32.4488Z" fill="white"/>
<path fill-rule="evenodd" clip-rule="evenodd" d="M95.7866 20.4549H90.708C90.708 22.1446 90.6523 24.1686 91.2558 25.292C91.3321 25.4566 91.4442 25.6021 91.584 25.7178C91.7237 25.8334 91.8876 25.9164 92.0636 25.9605C92.1876 26.0043 92.3149 26.0384 92.4442 26.0626C92.8247 26.0305 93.192 25.9074 93.5151 25.7039C93.8382 25.5003 94.1078 25.2222 94.3011 24.8928C94.7294 24.2743 95.07 23.5994 95.3131 22.8874C95.4152 23.0359 95.6102 23.1195 95.6194 23.2866C95.5871 23.4283 95.5306 23.5634 95.4523 23.6858C94.7096 25.3199 93.8461 27.1118 91.5808 27.1118C90.6448 27.1317 89.7315 26.8229 88.9997 26.239C87.7021 24.9975 86.9282 23.3069 86.8365 21.5133C86.5757 19.4625 86.7722 17.3794 87.4121 15.4135C87.9877 13.8166 88.9069 12.1826 90.9866 12.0433C91.4305 12.0107 91.8763 12.0715 92.2953 12.2218C92.7143 12.3722 93.0971 12.6086 93.4191 12.916C93.993 13.4716 94.4479 14.1381 94.756 14.875C95.4993 16.6385 95.8509 18.5423 95.7866 20.4549ZM92.0728 14.1694C92.0728 13.5938 91.98 12.9439 91.6086 12.7675C90.9309 12.4425 90.8009 13.5288 90.7545 14.1137C90.6152 15.887 90.7545 18.0688 90.7545 19.7493H92.1193C91.9986 17.9946 92.1193 16.0356 92.0636 14.1787L92.0728 14.1694Z" fill="white"/>
<path fill-rule="evenodd" clip-rule="evenodd" d="M28.9019 12.2939V15.1999C29.4311 13.928 29.951 12.2104 31.7707 12.4146C32.0759 12.4538 32.3614 12.5868 32.5877 12.7953C33.7854 13.928 33.9154 17.4374 32.727 18.6444C32.5911 18.7765 32.4295 18.8793 32.2522 18.9464C32.075 19.0135 31.8858 19.0434 31.6965 19.0343C31.4677 19.0049 31.2474 18.9288 31.0493 18.8106C30.8513 18.6924 30.6797 18.5347 30.5452 18.3473C30.0689 17.5946 29.8415 16.7111 29.8953 15.822C29.9119 15.5389 29.9429 15.2569 29.9881 14.9771C29.9881 14.7264 30.0996 14.3922 29.8582 14.2529C29.5239 14.4479 29.4404 14.8935 29.3568 15.2835C29.1139 16.712 29.0236 18.1623 29.0876 19.61V25.7376H30.2203V26.4061H24.334V25.7376H25.1324V13.343H24.3154V12.6374C25.8566 12.526 27.37 12.396 28.9019 12.2939Z" fill="white"/>
<path fill-rule="evenodd" clip-rule="evenodd" d="M38.8082 12.2939C38.8918 16.704 38.8082 21.2626 38.8082 25.7376H39.7367V26.4061H34.1661V25.7376H34.9645C35.011 21.6525 34.9645 17.4838 34.9645 13.3616H34.0732V12.6189C35.7723 12.6282 37.2485 12.4239 38.8082 12.2939Z" fill="white"/>
<path fill-rule="evenodd" clip-rule="evenodd" d="M57.0984 13.3801H56.235V12.6373C57.869 12.6373 59.2617 12.3588 60.8771 12.3495V25.756H61.8056V26.4245C60.2841 26.46 58.767 26.6027 57.2655 26.8516V24.1313C56.6621 25.3568 56.0864 26.6938 54.4802 26.833C52.6791 27.0001 52.1592 25.5704 51.8899 24.0477C51.6673 22.3149 51.5927 20.5662 51.6671 18.8207V13.3801H50.8779V12.6373C52.3805 12.6079 53.8804 12.4994 55.3715 12.3124C55.4829 12.3124 55.5294 12.2195 55.5479 12.4423C55.6222 13.3708 55.5479 14.5777 55.5479 15.4597V23.5371C55.5479 24.1777 55.5479 25.0226 56.2535 24.874C56.9592 24.7255 57.0241 23.3143 57.0613 22.5994C57.1263 21.4945 57.0613 20.4176 57.0613 19.5263L57.0984 13.3801Z" fill="white"/>
<path fill-rule="evenodd" clip-rule="evenodd" d="M72.4177 25.7561H73.2811V26.4245H68.0726V25.7561H68.5925V15.4134C68.5925 14.9491 68.4718 14.3921 68.0912 14.3549C67.7105 14.3178 67.4506 14.8192 67.3484 15.1627C67.0689 16.6275 66.9784 18.122 67.0792 19.6099V25.8025H67.6548V26.471H62.4092V25.8025H63.1983V13.3801H62.4092V12.6373C64.0339 12.6373 65.4266 12.3495 67.0513 12.3495V14.9677C67.5434 13.7793 68.1005 12.5166 69.4838 12.2753C70.0267 12.1833 70.5845 12.2922 71.0529 12.5816C71.7509 13.2172 72.1738 14.0997 72.232 15.042C72.3866 16.1957 72.4487 17.36 72.4177 18.5236V25.7561Z" fill="white"/>
<path fill-rule="evenodd" clip-rule="evenodd" d="M96.4639 12.4052H101.663V13.1572H101.143C101.784 16.3417 102.452 19.4891 103.121 22.6365C103.334 21.6152 103.548 20.5939 103.752 19.5448C103.797 19.4059 103.828 19.2628 103.845 19.1177C103.811 18.8665 103.758 18.6182 103.687 18.375C103.334 16.6481 103 14.8655 102.657 13.1572H101.97V12.4052H107.364V13.1572H106.435C107.048 16.2303 107.689 19.2848 108.292 22.3486C108.71 20.4082 109.156 18.1893 109.573 16.1189C109.763 15.3888 109.847 14.6353 109.824 13.8814C109.824 13.4357 109.657 13.0922 109.109 13.1572V12.4052H111.56V13.1572C111.434 13.1633 111.311 13.1948 111.198 13.25C110.4 13.6585 110.27 15.2276 110.019 16.2303C109.332 19.6748 108.636 23.2492 107.949 26.6009H105.349C104.903 24.5305 104.476 22.4508 104.049 20.3618C103.585 22.4136 103.176 24.5305 102.74 26.6009H99.9548C99.0264 22.1073 98.098 17.6508 97.1695 13.1572H96.3896V12.4609C96.3896 12.4609 96.4454 12.4052 96.4639 12.4052Z" fill="white"/>
<path fill-rule="evenodd" clip-rule="evenodd" d="M125.932 19.9348V20.9746C125.851 20.9616 125.775 20.9298 125.709 20.8818C125.472 20.7279 125.199 20.6391 124.917 20.6245C124.635 20.6098 124.354 20.6697 124.103 20.7982C122.859 21.6338 122.84 25.3568 124.734 25.3754C125.163 25.3565 125.578 25.2182 125.932 24.9762V26.0067C125.533 26.2393 125.076 26.3516 124.614 26.3302C124.153 26.3088 123.708 26.1545 123.332 25.886C122.107 24.809 122.153 21.5781 123.24 20.3154C123.56 19.9341 124.009 19.6831 124.502 19.6098C125 19.5808 125.496 19.6935 125.932 19.9348Z" fill="white"/>
<path fill-rule="evenodd" clip-rule="evenodd" d="M128.403 19.749C128.697 19.7301 128.992 19.7777 129.266 19.8883C131.123 20.7331 131.021 25.4589 129.173 26.3316C128.869 26.4582 128.537 26.5017 128.211 26.4576C127.885 26.4136 127.576 26.2836 127.316 26.0809C126.184 25.1525 126.147 21.8937 127.047 20.5753C127.193 20.3417 127.392 20.1454 127.627 20.002C127.863 19.8586 128.128 19.772 128.403 19.749ZM128.022 20.7981C126.88 21.3923 126.815 25.0318 128.133 25.4403C128.374 25.5054 128.627 25.5054 128.867 25.4403C129.87 25.0318 130.083 22.3858 129.452 21.2716C129.343 21.0667 129.172 20.901 128.964 20.7978C128.756 20.6946 128.521 20.659 128.291 20.696C128.197 20.7158 128.106 20.7503 128.022 20.7981Z" fill="white"/>
<path fill-rule="evenodd" clip-rule="evenodd" d="M134.483 21.1233C134.634 20.7049 134.861 20.3177 135.152 19.9814C135.366 19.8043 135.642 19.7194 135.919 19.7455C136.195 19.7717 136.451 19.9066 136.628 20.1206C136.671 20.1719 136.709 20.2279 136.739 20.2878C136.986 21.2481 137.059 22.245 136.953 23.2309V26.369H136.024V21.829C136.024 21.374 136.024 20.687 135.662 20.6684C135.3 20.6498 135.142 21.1048 135.031 21.3183C134.958 21.4602 134.893 21.6058 134.836 21.7547C134.75 21.8877 134.681 22.0313 134.632 22.1818C134.604 22.5309 134.604 22.8817 134.632 23.2309V26.369H133.703V21.829C133.703 21.3555 133.703 20.687 133.36 20.6684C133.016 20.6498 132.673 21.439 132.534 21.7547C132.45 21.8878 132.384 22.0314 132.339 22.1818C132.311 22.5309 132.311 22.8817 132.339 23.2309V26.369H131.41V19.87H132.199C132.223 20.2689 132.223 20.6688 132.199 21.0676C132.534 20.5477 132.682 19.7957 133.443 19.7493C134.205 19.7028 134.474 20.297 134.483 21.1233Z" fill="white"/>
<path fill-rule="evenodd" clip-rule="evenodd" d="M120.696 23.7413C122.024 23.4906 122.126 25.9324 121.077 26.2017C120.399 26.3874 119.972 25.7189 119.916 25.1804C119.889 24.9565 119.908 24.7293 119.974 24.5134C120.04 24.2975 120.15 24.0978 120.297 23.927C120.413 23.834 120.55 23.7703 120.696 23.7413Z" fill="white"/>
<line x1="153.5" y1="2.18557e-08" x2="153.5" y2="44" stroke="white"/>
<path fill-rule="evenodd" clip-rule="evenodd" d="M200.576 4.84213C200.692 4.89114 200.86 4.89477 200.972 4.94922C200.571 9.95673 197.43 12.4523 191.678 12.073V34.2756C195.802 33.3227 198.391 30.6982 200.326 27.5257C200.49 27.5874 200.648 27.6527 200.81 27.7199C199.551 32.8962 196.719 36.8474 191.822 38.4409C189.379 39.2377 185.89 39.3902 182.994 38.7948C180.282 38.2376 178.039 37.1178 176.235 35.6785C173.518 33.5042 171.56 30.4387 171.238 25.9122C171.128 24.3567 171.275 22.8285 171.595 21.4473C172.207 18.8465 173.433 16.7175 174.906 14.9062C176.384 13.0876 178.177 11.5702 180.063 10.2108C177.689 9.73349 175.038 9.90772 173.267 10.8134C171.787 11.5684 170.62 12.7754 169.69 14.1439C169.574 14.3109 169.379 14.663 169.259 14.6938C169.141 14.7283 168.987 14.672 168.863 14.6938C169.353 11.3688 170.749 8.94216 173.017 7.31957C175.237 5.73873 178.455 4.87117 182.346 5.12527C186.779 5.41385 190.485 6.73697 194.64 7.33954C195.526 7.47021 196.452 7.55552 197.305 7.42847C198.987 7.17619 199.79 6.12713 200.539 4.89658C200.554 4.88025 200.55 4.84576 200.574 4.84395M176.393 20.4709C175.97 25.5673 177.776 29.043 180.424 31.3008C180.915 30.8489 181.355 30.3788 181.646 29.72C181.942 29.0484 182.027 28.2244 182.027 27.2915V10.5103C181.81 10.4921 181.609 10.4613 181.414 10.4214C178.912 12.8407 176.776 15.9225 176.395 20.4709M187.221 11.3978V17.9535C187.221 20.1641 187.355 22.3857 187.004 24.3186C186.326 28.0575 183.909 30.0376 181.558 32.0958C183.533 33.8127 186.615 34.7729 190.456 34.4879V11.9986C189.379 11.7917 188.326 11.5612 187.237 11.3651C187.232 11.3361 187.212 11.3651 187.219 11.3996" fill="white"/>
<path fill-rule="evenodd" clip-rule="evenodd" d="M205.609 6.31228C206.59 6.30865 207.17 6.74606 207.457 7.49746C208.023 8.95851 207.653 11.298 206.417 11.8225C205.539 12.1964 204.399 11.828 203.935 11.1673C203.597 10.6809 203.449 10.0021 203.451 9.25254C203.457 7.61906 203.888 6.31772 205.609 6.31228Z" fill="white"/>
<path fill-rule="evenodd" clip-rule="evenodd" d="M213.445 14.977C213.852 14.2963 214.198 13.5486 214.901 13.1529C215.555 12.7845 216.471 13.0005 216.934 13.3489C217.432 13.7246 217.771 14.2855 218.031 14.8499C219.062 17.1331 219.281 21.0172 218.587 23.9103C218.255 25.2824 217.583 26.5801 216.573 27.081C215.77 27.4803 214.77 27.248 214.271 26.7616C213.745 26.2461 213.489 25.4965 213.283 24.7034C213.242 25.5274 213.279 26.4258 213.264 27.2734C211.81 27.1191 210.458 26.8632 208.844 26.8668V26.2135H209.67C209.715 20.0716 209.676 13.8589 209.689 7.69165H208.844V7.05097C210.427 6.99652 211.946 6.84225 213.301 6.60993C213.458 6.58271 213.435 6.59723 213.445 6.7878C213.524 8.10184 213.445 9.45399 213.445 10.7553V14.9733V14.977ZM213.465 17.1404C213.423 18.0497 213.445 19.0951 213.445 20.2404C213.445 21.255 213.428 22.3203 213.465 23.324C213.478 23.7578 213.522 24.286 213.627 24.7234C213.719 25.1154 213.931 25.6272 214.327 25.5927C214.676 25.5619 214.774 24.9956 214.831 24.5836C215.019 23.1988 214.921 21.549 214.921 20.1151V17.0878C214.921 16.5342 214.921 16.1567 214.848 15.6558C214.77 15.1258 214.652 14.6503 214.218 14.7301C213.518 14.8644 213.498 16.3436 213.465 17.1404Z" fill="white"/>
<path fill-rule="evenodd" clip-rule="evenodd" d="M197.661 12.9932V15.8445C198.193 14.5922 198.707 12.9061 200.52 13.0985C200.815 13.1293 201.137 13.2945 201.328 13.476C202.525 14.5867 202.659 18.0497 201.472 19.2149C201.247 19.4327 200.866 19.6414 200.446 19.6033C199.953 19.5616 199.541 19.2385 199.296 18.93C198.836 18.3437 198.644 17.3564 198.65 16.4489C198.653 16.1984 198.71 15.8881 198.742 15.6176C198.767 15.369 198.859 15.0441 198.616 14.9062C198.285 15.0967 198.204 15.5378 198.112 15.9189C197.827 17.1077 197.843 18.6468 197.843 20.1714V26.1971C198.184 26.2371 198.6 26.2026 198.975 26.2171V26.8705H193.115V26.2171H193.907C193.946 22.1915 193.911 18.0933 193.923 14.0386H193.115V13.3308C194.627 13.2164 196.133 13.093 197.663 12.9932" fill="white"/>
<path fill-rule="evenodd" clip-rule="evenodd" d="M207.53 12.9932C207.615 17.3201 207.545 21.7994 207.567 26.1953C207.826 26.2352 208.161 26.2008 208.449 26.2153V26.8687H202.839V26.2153H203.631C203.671 22.1969 203.64 18.1042 203.649 14.0568H202.839V13.3308C204.511 13.3217 205.98 13.1184 207.532 12.9932" fill="white"/>
<path fill-rule="evenodd" clip-rule="evenodd" d="M225.76 14.0568H224.898V13.3308C226.528 13.3126 227.914 13.0531 229.556 13.0476V26.2153H230.455V26.8687C228.801 26.8723 227.374 27.0955 225.922 27.2934C225.881 26.4367 225.918 25.5038 225.905 24.6199C225.303 25.8251 224.732 27.1373 223.173 27.2752C221.371 27.4368 220.859 26.0283 220.586 24.5273C220.305 22.9846 220.371 21.2059 220.371 19.391V14.0568H219.581V13.3308C221.045 13.2818 222.687 13.2001 224.055 13.0113C224.171 12.9968 224.217 12.9188 224.234 13.1329C224.311 14.0513 224.234 15.2347 224.234 16.0968V24.0355C224.234 24.6671 224.204 25.4911 224.935 25.3477C225.546 25.2243 225.703 23.8159 225.743 23.1117C225.808 22.0245 225.762 20.9718 225.762 20.097V14.0568H225.76Z" fill="white"/>
<path fill-rule="evenodd" clip-rule="evenodd" d="M241.021 26.2153H241.886V26.8687H236.689V26.2153H237.21C237.241 23.4493 237.23 20.3801 237.226 17.4744C237.226 17.046 237.23 16.5106 237.191 16.0569C237.152 15.5886 237.068 15.0441 236.687 15.0133C236.236 14.9715 236.053 15.4652 235.95 15.81C235.597 16.968 235.698 18.6432 235.698 20.1315C235.698 22.2006 235.698 24.1952 235.698 26.2135H236.272V26.8668H231.04V26.2135H231.832V14.0568H231.04V13.3308C232.662 13.3036 234.048 13.0495 235.696 13.0495V15.6558C236.186 14.4887 236.744 13.2455 238.123 13.0113C238.727 12.9061 239.299 13.0658 239.684 13.3126C240.362 13.7428 240.689 14.7356 240.855 15.7247C241.032 16.7774 241.015 17.9608 241.015 19.1078C241.019 21.5925 241.015 24.0373 241.015 26.2189" fill="white"/>
<path d="M251.504 26.7815L245.156 10.9477V23.6235C245.156 25.1807 245.504 26.0029 246.196 26.0882L246.607 26.032V26.7834H243.343V26.032L243.643 26.0882C244.284 26.0029 244.604 25.0973 244.604 23.3712V9.27976C244.525 9.09645 244.407 8.81513 244.25 8.43943C244.052 7.99295 243.792 7.77152 243.468 7.77152H243.343V7.0782H249.319L253.544 17.6178V9.17268C253.544 8.60641 253.454 8.23978 253.277 8.07462C253.099 7.90946 252.835 7.82778 252.489 7.82778H252.189V7.07639H255.389V7.82778H255.106C254.601 7.82778 254.292 8.12907 254.176 8.73346C254.144 8.8841 254.128 9.36688 254.128 10.1782V26.7815H251.506H251.504Z" fill="white"/>
<path d="M259.645 20.9446C259.645 22.3149 259.665 23.2024 259.708 23.6072C259.835 24.8831 260.138 25.6889 260.623 26.0302L261.331 26.257C262.467 26.257 263.434 25.2515 264.233 23.2405L264.533 23.6235C263.881 25.012 263.34 25.9086 262.909 26.3151C262.246 26.9376 261.453 27.2498 260.529 27.2498C258.953 27.2498 257.754 26.5982 256.935 25.2951C256.116 23.9919 255.705 22.3113 255.705 20.2513C255.705 18.5234 255.994 17.0025 256.572 15.6903C257.371 13.8771 258.579 12.9696 260.197 12.9696C261.501 12.9696 262.576 13.6992 263.421 15.1585C264.266 16.6177 264.69 18.547 264.69 20.9446H259.645ZM259.645 15.9008V20.2785H261V15.8445C261 15.0314 260.98 14.5269 260.937 14.329C260.833 13.8481 260.617 13.6067 260.291 13.6067C259.86 13.6067 259.645 14.3708 259.645 15.9008Z" fill="white"/>
<path d="M265.115 14.0187V13.3253C266.966 13.3253 268.451 11.6483 269.576 8.29605H269.891V13.3253H271.673V14.0187H269.891V24.0482C269.891 25.021 270.033 25.5074 270.316 25.5074H270.379C271.136 25.3477 271.515 24.1952 271.515 22.0517H271.861C271.861 23.5999 271.635 24.7923 271.183 25.629C270.732 26.4639 270.075 26.9685 269.214 27.1373C269.024 27.1754 268.867 27.1936 268.74 27.1936H268.346C267.547 27.1936 267.012 26.9758 266.739 26.542C266.498 26.2498 266.325 25.7488 266.218 25.041C266.102 24.266 266.045 23.511 266.045 22.7741V14.0187H265.115Z" fill="white"/>
<path d="M277.46 14.0332H276.935L278.916 23.0554L279.625 19.6705L278.446 14.035H277.774V13.3108H283.119V14.0332H282.235L284.111 22.7723L285.467 16.409C285.571 15.9189 285.625 15.4144 285.625 14.8953C285.625 14.3199 285.457 14.0332 285.12 14.0332H284.916V13.3108H287.344V14.0332C286.851 14.0332 286.472 14.447 286.208 15.2728C286.146 15.4615 286.041 15.9117 285.894 16.6249L283.765 26.7815H281.184L279.888 20.8212L278.59 26.7815H275.882L273.059 14.0313H272.286V13.309H277.458V14.0313L277.46 14.0332Z" fill="white"/>
<path d="M293.038 12.9696C294.656 12.9696 295.886 13.7446 296.727 15.2928C297.41 16.5596 297.753 18.135 297.753 20.0244C297.753 21.7722 297.443 23.2968 296.823 24.6C295.982 26.3659 294.711 27.2498 293.008 27.2498C291.147 27.2498 289.797 26.4186 288.956 24.756C288.347 23.5473 288.041 21.9882 288.041 20.0807C288.041 18.2857 288.382 16.7375 289.067 15.4343C289.928 13.7918 291.158 12.9696 292.756 12.9696H293.04H293.038ZM293.621 15.8463C293.621 15.1004 293.61 14.6521 293.59 14.4996C293.505 13.9043 293.27 13.6067 292.881 13.6067C292.366 13.6067 292.108 14.3526 292.108 15.8445V24.7125C292.108 25.894 292.366 26.4839 292.881 26.4839C293.27 26.4839 293.507 26.257 293.59 25.8033C293.61 25.6889 293.621 25.3259 293.621 24.7125V15.8445V15.8463Z" fill="white"/>
<path d="M299.218 14.0186H298.413V13.3108L302.922 12.9714V15.8481C303.52 14.0059 304.341 13.0857 305.382 13.0857H305.571C306.286 13.0857 306.812 13.5486 307.147 14.4742C307.388 15.1076 307.51 15.8245 307.51 16.6268C307.51 17.2874 307.388 17.8972 307.147 18.4544C306.81 19.1913 306.328 19.5598 305.696 19.5598C304.498 19.351 303.9 18.2748 303.9 16.3291L304.027 15.0532C303.984 14.9969 303.953 14.9588 303.933 14.9407L303.87 14.8844C303.638 14.8844 303.423 15.4561 303.224 16.5977C303.139 17.0696 303.097 17.8628 303.097 18.9772V26.1173H304.216V26.7834H298.415V26.1173H299.219V14.0186H299.218Z" fill="white"/>
<path d="M312.194 20.1369L313.486 18.0298C313.665 17.7648 313.912 17.3655 314.227 16.8337C314.552 16.2075 314.714 15.6576 314.714 15.1839C314.714 14.3871 314.335 13.9878 313.58 13.9878H313.391V13.3072H317.743V13.9878H317.522C317.038 13.9878 316.445 14.4506 315.74 15.3763C315.55 15.6213 315.283 15.9988 314.935 16.5088L317.931 26.1136H318.135V26.7797H313.326V26.1136H313.952L312.415 20.7159L312.19 20.999V26.1136H312.805V26.7797H307.854V26.1136H308.595V7.71344H307.854V7.07639C308.801 7.07639 310.246 6.9203 312.19 6.60812V20.1369H312.194Z" fill="white"/>
<path d="M204.328 34.7003L202.86 30.5349H202.833C202.872 31.1538 202.892 31.7328 202.892 32.2755V34.7003H202.141V29.7127H203.306L204.711 33.6803H204.731L206.178 29.7127H207.347V34.7003H206.552V32.2337C206.552 31.9851 206.557 31.6638 206.57 31.2645C206.583 30.8671 206.594 30.6257 206.603 30.5422H206.576L205.057 34.7003H204.326H204.328Z" fill="white"/>
<path d="M210.989 34.7003L210.827 34.1758H210.8C210.616 34.4044 210.43 34.5623 210.242 34.644C210.056 34.7275 209.815 34.7693 209.522 34.7693C209.146 34.7693 208.852 34.6694 208.642 34.4698C208.43 34.2701 208.325 33.987 208.325 33.6204C208.325 33.232 208.472 32.9379 208.765 32.7401C209.058 32.5423 209.505 32.4352 210.104 32.4152L210.765 32.3953V32.1938C210.765 31.9524 210.708 31.7727 210.593 31.6529C210.479 31.5332 210.303 31.4733 210.061 31.4733C209.866 31.4733 209.677 31.5023 209.498 31.5586C209.318 31.6148 209.144 31.682 208.979 31.76L208.716 31.1865C208.924 31.0794 209.15 30.9977 209.397 30.9433C209.643 30.887 209.877 30.8598 210.096 30.8598C210.582 30.8598 210.951 30.9633 211.199 31.1738C211.448 31.3825 211.571 31.711 211.571 32.1593V34.7003H210.989ZM209.778 34.154C210.072 34.154 210.31 34.0723 210.488 33.9108C210.667 33.7474 210.757 33.5206 210.757 33.2265V32.8998L210.266 32.9198C209.883 32.9325 209.605 32.996 209.43 33.1086C209.255 33.2211 209.168 33.3935 209.168 33.6258C209.168 33.7946 209.218 33.9235 209.321 34.016C209.422 34.1086 209.575 34.154 209.778 34.154Z" fill="white"/>
<path d="M214.132 34.1195C214.331 34.1195 214.528 34.0886 214.727 34.0269V34.6313C214.637 34.6694 214.521 34.7021 214.379 34.7293C214.237 34.7547 214.09 34.7693 213.937 34.7693C213.167 34.7693 212.781 34.3681 212.781 33.5677V31.535H212.258V31.1811L212.819 30.887L213.096 30.0884H213.598V30.927H214.688V31.535H213.598V33.555C213.598 33.7492 213.648 33.8908 213.745 33.9834C213.843 34.0759 213.972 34.1213 214.132 34.1213" fill="white"/>
<path d="M217.886 34.7003L217.724 34.1758H217.696C217.512 34.4044 217.326 34.5623 217.138 34.644C216.952 34.7275 216.711 34.7693 216.418 34.7693C216.043 34.7693 215.748 34.6694 215.538 34.4698C215.327 34.2701 215.222 33.987 215.222 33.6204C215.222 33.232 215.369 32.9379 215.662 32.7401C215.954 32.5423 216.402 32.4352 217 32.4152L217.661 32.3953V32.1938C217.661 31.9524 217.604 31.7727 217.49 31.6529C217.376 31.5332 217.199 31.4733 216.958 31.4733C216.763 31.4733 216.573 31.5023 216.394 31.5586C216.214 31.6148 216.041 31.682 215.875 31.76L215.612 31.1865C215.82 31.0794 216.046 30.9977 216.293 30.9433C216.54 30.887 216.774 30.8598 216.993 30.8598C217.479 30.8598 217.847 30.9633 218.096 31.1738C218.344 31.3825 218.468 31.711 218.468 32.1593V34.7003H217.886ZM216.674 34.154C216.969 34.154 217.206 34.0723 217.385 33.9108C217.564 33.7474 217.654 33.5206 217.654 33.2265V32.8998L217.162 32.9198C216.779 32.9325 216.501 32.996 216.326 33.1086C216.151 33.2211 216.065 33.3935 216.065 33.6258C216.065 33.7946 216.115 33.9235 216.218 34.016C216.319 34.1086 216.472 34.154 216.674 34.154Z" fill="white"/>
<path d="M221.529 34.7003V29.7127H222.358V33.9997H224.499V34.7003H221.529Z" fill="white"/>
<path d="M228.68 32.8054C228.68 33.4225 228.52 33.9017 228.2 34.2483C227.879 34.595 227.432 34.7674 226.861 34.7674C226.504 34.7674 226.187 34.6876 225.913 34.5278C225.639 34.3681 225.427 34.1413 225.28 33.8418C225.132 33.5441 225.059 33.1975 225.059 32.8054C225.059 32.1938 225.217 31.7165 225.535 31.3734C225.854 31.0304 226.303 30.858 226.881 30.858C227.459 30.858 227.874 31.034 228.196 31.3843C228.518 31.7346 228.68 32.2101 228.68 32.8054ZM225.894 32.8054C225.894 33.6766 226.22 34.1122 226.874 34.1122C227.528 34.1122 227.842 33.6766 227.842 32.8054C227.842 31.9343 227.516 31.5132 226.867 31.5132C226.524 31.5132 226.277 31.6239 226.125 31.8471C225.972 32.0704 225.894 32.3898 225.894 32.8054Z" fill="white"/>
<path d="M230.399 32.7074L230.86 32.1412L232.016 30.9269H232.953L231.412 32.5477L233.049 34.7003H232.095L230.865 33.045L230.42 33.4062V34.7003H229.613V29.3915H230.42V31.9814L230.377 32.7074H230.399Z" fill="white"/>
<path d="M236.062 34.7003L235.9 34.1758H235.872C235.688 34.4044 235.502 34.5623 235.314 34.644C235.128 34.7275 234.887 34.7693 234.594 34.7693C234.219 34.7693 233.924 34.6694 233.714 34.4698C233.502 34.2701 233.397 33.987 233.397 33.6204C233.397 33.232 233.545 32.9379 233.837 32.7401C234.13 32.5423 234.578 32.4352 235.176 32.4152L235.837 32.3953V32.1938C235.837 31.9524 235.78 31.7727 235.666 31.6529C235.552 31.5332 235.375 31.4733 235.134 31.4733C234.938 31.4733 234.749 31.5023 234.57 31.5586C234.39 31.6148 234.217 31.682 234.051 31.76L233.788 31.1865C233.996 31.0794 234.222 30.9977 234.469 30.9433C234.716 30.887 234.95 30.8598 235.169 30.8598C235.655 30.8598 236.023 30.9633 236.271 31.1738C236.52 31.3825 236.643 31.711 236.643 32.1593V34.7003H236.062ZM234.85 34.154C235.145 34.154 235.382 34.0723 235.561 33.9108C235.739 33.7474 235.83 33.5206 235.83 33.2265V32.8998L235.338 32.9198C234.955 32.9325 234.677 32.996 234.502 33.1086C234.327 33.2211 234.241 33.3935 234.241 33.6258C234.241 33.7946 234.29 33.9235 234.393 34.016C234.495 34.1086 234.648 34.154 234.85 34.154Z" fill="white"/>
<path d="M238.591 29.3915H237.777V34.7003H238.591V29.3915Z" fill="white"/>
<path d="M243.867 34.7003L242.4 30.5349H242.372C242.411 31.1538 242.431 31.7328 242.431 32.2755V34.7003H241.68V29.7127H242.845L244.25 33.6803H244.27L245.717 29.7127H246.886V34.7003H246.091V32.2337C246.091 31.9851 246.096 31.6638 246.109 31.2645C246.122 30.8671 246.133 30.6257 246.143 30.5422H246.115L244.596 34.7003H243.865H243.867Z" fill="white"/>
<path d="M249.806 34.7674C249.212 34.7674 248.746 34.5968 248.409 34.2538C248.074 33.9108 247.906 33.4407 247.906 32.8399C247.906 32.2392 248.063 31.74 248.374 31.3861C248.685 31.034 249.114 30.858 249.657 30.858C250.162 30.858 250.561 31.0086 250.854 31.3117C251.147 31.6148 251.294 32.0304 251.294 32.5604V32.9942H248.744C248.755 33.3608 248.856 33.6421 249.046 33.8382C249.236 34.0342 249.502 34.134 249.845 34.134C250.071 34.134 250.281 34.114 250.476 34.0705C250.672 34.0287 250.881 33.9579 251.104 33.8599V34.5115C250.905 34.6041 250.705 34.6712 250.502 34.7093C250.3 34.7475 250.068 34.7674 249.806 34.7674ZM249.657 31.466C249.399 31.466 249.191 31.5477 249.037 31.7074C248.88 31.8689 248.788 32.1049 248.759 32.4134H250.497C250.493 32.1012 250.416 31.8653 250.268 31.7056C250.121 31.5458 249.919 31.4642 249.659 31.4642" fill="white"/>
<path d="M255.584 34.7003H254.769V32.3807C254.769 32.0904 254.71 31.8726 254.59 31.7292C254.47 31.5858 254.283 31.515 254.025 31.515C253.68 31.515 253.43 31.6148 253.27 31.8145C253.112 32.0141 253.031 32.3499 253.031 32.82V34.7003H252.217V30.927H252.854L252.968 31.4224H253.008C253.124 31.2428 253.288 31.1048 253.5 31.0068C253.712 30.9088 253.947 30.8598 254.205 30.8598C255.124 30.8598 255.582 31.3208 255.582 32.241V34.7003H255.584Z" fill="white"/>
<path d="M256.326 36.3773C256.081 36.3773 255.879 36.3483 255.717 36.292V35.6568C255.873 35.6985 256.033 35.7185 256.197 35.7185C256.543 35.7185 256.717 35.5261 256.717 35.1377V30.9251H257.53V35.1921C257.53 35.5805 257.427 35.8764 257.221 36.076C257.015 36.2757 256.717 36.3755 256.326 36.3755M256.669 29.9251C256.669 29.7817 256.709 29.671 256.788 29.5948C256.867 29.5167 256.982 29.4786 257.129 29.4786C257.276 29.4786 257.383 29.5167 257.464 29.5948C257.543 29.6728 257.584 29.7835 257.584 29.9251C257.584 30.0667 257.543 30.1683 257.464 30.2482C257.385 30.3262 257.273 30.3661 257.129 30.3661C256.985 30.3661 256.867 30.3262 256.788 30.2482C256.709 30.1701 256.669 30.063 256.669 29.9251Z" fill="white"/>
<path d="M261.087 34.7003L260.925 34.1758H260.897C260.713 34.4044 260.527 34.5623 260.339 34.644C260.153 34.7275 259.912 34.7693 259.62 34.7693C259.244 34.7693 258.949 34.6694 258.74 34.4698C258.528 34.2701 258.423 33.987 258.423 33.6204C258.423 33.232 258.57 32.9379 258.863 32.7401C259.156 32.5423 259.603 32.4352 260.201 32.4152L260.862 32.3953V32.1938C260.862 31.9524 260.805 31.7727 260.691 31.6529C260.577 31.5332 260.4 31.4733 260.159 31.4733C259.964 31.4733 259.774 31.5023 259.596 31.5586C259.415 31.6148 259.242 31.682 259.076 31.76L258.813 31.1865C259.021 31.0794 259.248 30.9977 259.494 30.9433C259.741 30.887 259.975 30.8598 260.194 30.8598C260.68 30.8598 261.048 30.9633 261.297 31.1738C261.545 31.3825 261.669 31.711 261.669 32.1593V34.7003H261.087ZM259.875 34.154C260.17 34.154 260.408 34.0723 260.586 33.9108C260.765 33.7474 260.855 33.5206 260.855 33.2265V32.8998L260.363 32.9198C259.98 32.9325 259.702 32.996 259.528 33.1086C259.353 33.2211 259.266 33.3935 259.266 33.6258C259.266 33.7946 259.316 33.9235 259.419 34.016C259.52 34.1086 259.673 34.154 259.875 34.154Z" fill="white"/>
<path d="M266.17 34.7003H265.355V32.3807C265.355 32.0904 265.296 31.8726 265.176 31.7292C265.056 31.5858 264.868 31.515 264.611 31.515C264.266 31.515 264.016 31.6148 263.856 31.8145C263.698 32.0141 263.617 32.3499 263.617 32.82V34.7003H262.803V30.927H263.44L263.554 31.4224H263.594C263.71 31.2428 263.874 31.1048 264.086 31.0068C264.298 30.9088 264.533 30.8598 264.791 30.8598C265.71 30.8598 266.168 31.3208 266.168 32.241V34.7003H266.17Z" fill="white"/>
<path d="M270.534 30.927V31.3662L269.88 31.486C269.941 31.5658 269.991 31.6638 270.029 31.78C270.068 31.8962 270.088 32.0178 270.088 32.1484C270.088 32.5368 269.952 32.8436 269.679 33.0668C269.407 33.2901 269.031 33.4008 268.554 33.4008C268.433 33.4008 268.322 33.3917 268.223 33.3735C268.048 33.4806 267.96 33.6059 267.96 33.7492C267.96 33.8364 268 33.8999 268.083 33.9434C268.164 33.987 268.315 34.0088 268.534 34.0088H269.203C269.624 34.0088 269.945 34.0977 270.165 34.2756C270.385 34.4535 270.493 34.7094 270.493 35.0433C270.493 35.4717 270.315 35.8002 269.957 36.0325C269.6 36.2648 269.083 36.381 268.407 36.381C267.886 36.381 267.488 36.2902 267.214 36.1087C266.94 35.9272 266.802 35.6677 266.802 35.3301C266.802 35.0978 266.875 34.9036 267.025 34.7457C267.174 34.5878 267.382 34.477 267.649 34.4172C267.54 34.3718 267.452 34.2992 267.38 34.1975C267.31 34.0959 267.275 33.9906 267.275 33.8781C267.275 33.7365 267.315 33.6186 267.396 33.5206C267.477 33.4225 267.597 33.3264 267.755 33.2302C267.557 33.1467 267.396 33.0087 267.273 32.82C267.15 32.6294 267.089 32.408 267.089 32.1521C267.089 31.7437 267.22 31.4261 267.481 31.201C267.743 30.976 268.116 30.8634 268.601 30.8634C268.709 30.8634 268.823 30.8707 268.941 30.8852C269.059 30.8997 269.149 30.9161 269.21 30.9306H270.535L270.534 30.927ZM267.527 35.2865C267.527 35.4589 267.606 35.5933 267.765 35.6858C267.923 35.7784 268.146 35.8256 268.431 35.8256C268.875 35.8256 269.204 35.762 269.422 35.6386C269.639 35.5134 269.748 35.3482 269.748 35.1413C269.748 34.978 269.689 34.8618 269.569 34.791C269.449 34.7221 269.228 34.6876 268.906 34.6876H268.289C268.057 34.6876 267.871 34.742 267.733 34.8491C267.595 34.958 267.527 35.1032 267.527 35.2883M267.877 32.1503C267.877 32.3862 267.94 32.5695 268.061 32.6966C268.184 32.8236 268.361 32.8871 268.593 32.8871C269.064 32.8871 269.298 32.6385 269.298 32.143C269.298 31.898 269.239 31.7074 269.123 31.5749C269.007 31.4424 268.831 31.3753 268.591 31.3753C268.352 31.3753 268.177 31.4406 268.057 31.5731C267.936 31.7056 267.875 31.898 267.875 32.1503" fill="white"/>
<path d="M272.028 32.7074L272.489 32.1412L273.645 30.9269H274.582L273.043 32.5477L274.68 34.7003H273.724L272.496 33.045L272.049 33.4062V34.7003H271.242V29.3915H272.049V31.9814L272.008 32.7074H272.028Z" fill="white"/>
<path d="M277.69 34.7003L277.528 34.1758H277.501C277.317 34.4044 277.131 34.5623 276.943 34.644C276.757 34.7275 276.516 34.7693 276.223 34.7693C275.847 34.7693 275.553 34.6694 275.343 34.4698C275.131 34.2701 275.026 33.987 275.026 33.6204C275.026 33.232 275.174 32.9379 275.466 32.7401C275.759 32.5423 276.207 32.4352 276.805 32.4152L277.466 32.3953V32.1938C277.466 31.9524 277.409 31.7727 277.295 31.6529C277.18 31.5332 277.004 31.4733 276.763 31.4733C276.567 31.4733 276.378 31.5023 276.199 31.5586C276.019 31.6148 275.846 31.682 275.68 31.76L275.417 31.1865C275.625 31.0794 275.851 30.9977 276.098 30.9433C276.345 30.887 276.578 30.8598 276.798 30.8598C277.284 30.8598 277.652 30.9633 277.9 31.1738C278.149 31.3825 278.272 31.711 278.272 32.1593V34.7003H277.69ZM276.479 34.154C276.774 34.154 277.011 34.0723 277.19 33.9108C277.368 33.7474 277.458 33.5206 277.458 33.2265V32.8998L276.967 32.9198C276.584 32.9325 276.306 32.996 276.131 33.1086C275.956 33.2211 275.87 33.3935 275.87 33.6258C275.87 33.7946 275.919 33.9235 276.022 34.016C276.124 34.1086 276.276 34.154 276.479 34.154Z" fill="white"/>
<path d="M282.107 34.7003L281.993 34.2048H281.951C281.838 34.3808 281.676 34.517 281.468 34.6168C281.26 34.7166 281.021 34.7674 280.754 34.7674C280.29 34.7674 279.944 34.6531 279.715 34.4262C279.487 34.1994 279.373 33.8545 279.373 33.3917V30.9251H280.194V33.2519C280.194 33.5405 280.253 33.7583 280.375 33.9017C280.494 34.0469 280.682 34.1177 280.938 34.1177C281.28 34.1177 281.531 34.0179 281.691 33.8164C281.851 33.6149 281.932 33.2773 281.932 32.8055V30.9251H282.75V34.6985H282.109L282.107 34.7003Z" fill="white"/>
<path d="M286.66 29.7127H285.833V34.7003H286.66V29.7127Z" fill="white"/>
<path d="M291.276 34.7003H290.46V32.3807C290.46 32.0904 290.401 31.8726 290.281 31.7292C290.162 31.5858 289.974 31.515 289.716 31.515C289.372 31.515 289.121 31.6148 288.961 31.8145C288.801 32.0141 288.722 32.3499 288.722 32.82V34.7003H287.908V30.927H288.545L288.659 31.4224H288.7C288.816 31.2428 288.98 31.1048 289.191 31.0068C289.403 30.9088 289.639 30.8598 289.897 30.8598C290.815 30.8598 291.274 31.3208 291.274 32.241V34.7003H291.276Z" fill="white"/>
<path d="M293.699 34.7674C293.222 34.7674 292.848 34.5968 292.581 34.2556C292.314 33.9144 292.18 33.4352 292.18 32.82C292.18 32.2047 292.314 31.7201 292.587 31.3752C292.857 31.0304 293.233 30.858 293.713 30.858C294.194 30.858 294.599 31.0413 294.862 31.4061H294.905C294.866 31.1357 294.846 30.9215 294.846 30.7654V29.3915H295.663V34.7003H295.026L294.884 34.2048H294.846C294.584 34.5805 294.203 34.7674 293.7 34.7674M293.918 34.1195C294.253 34.1195 294.496 34.0269 294.649 33.8418C294.801 33.6567 294.879 33.3554 294.884 32.9398V32.8272C294.884 32.3517 294.805 32.0141 294.649 31.8145C294.492 31.6148 294.245 31.5132 293.912 31.5132C293.627 31.5132 293.406 31.6275 293.251 31.8562C293.097 32.0849 293.019 32.4098 293.019 32.8327C293.019 33.2556 293.095 33.5696 293.244 33.7892C293.393 34.0088 293.619 34.1177 293.92 34.1177" fill="white"/>
<path d="M300.218 32.8054C300.218 33.4225 300.058 33.9017 299.738 34.2483C299.417 34.595 298.97 34.7674 298.399 34.7674C298.042 34.7674 297.725 34.6876 297.451 34.5278C297.177 34.3681 296.965 34.1413 296.818 33.8418C296.67 33.5441 296.597 33.1975 296.597 32.8054C296.597 32.1938 296.755 31.7165 297.074 31.3734C297.392 31.0304 297.841 30.858 298.419 30.858C298.997 30.858 299.412 31.034 299.734 31.3843C300.056 31.7364 300.218 32.2101 300.218 32.8054ZM297.433 32.8054C297.433 33.6766 297.758 34.1122 298.412 34.1122C299.066 34.1122 299.38 33.6766 299.38 32.8054C299.38 31.9343 299.055 31.5132 298.405 31.5132C298.062 31.5132 297.815 31.6239 297.663 31.8471C297.51 32.0704 297.433 32.3898 297.433 32.8054Z" fill="white"/>
<path d="M304.521 34.7003H303.705V32.3807C303.705 32.0904 303.646 31.8726 303.526 31.7292C303.407 31.5858 303.219 31.515 302.961 31.515C302.617 31.515 302.367 31.6148 302.206 31.8145C302.046 32.0141 301.967 32.3499 301.967 32.82V34.7003H301.153V30.927H301.79L301.904 31.4224H301.945C302.061 31.2428 302.225 31.1048 302.437 31.0068C302.648 30.9088 302.884 30.8598 303.142 30.8598C304.06 30.8598 304.519 31.3208 304.519 32.241V34.7003H304.521Z" fill="white"/>
<path d="M307.323 34.7674C306.728 34.7674 306.262 34.5968 305.925 34.2538C305.59 33.9108 305.423 33.4407 305.423 32.8399C305.423 32.2392 305.579 31.74 305.89 31.3861C306.202 31.0322 306.631 30.858 307.174 30.858C307.678 30.858 308.078 31.0086 308.37 31.3117C308.663 31.6148 308.81 32.0304 308.81 32.5604V32.9942H306.261C306.272 33.3608 306.373 33.6421 306.562 33.8382C306.752 34.0342 307.019 34.134 307.362 34.134C307.588 34.134 307.798 34.114 307.993 34.0705C308.188 34.0287 308.398 33.9579 308.621 33.8599V34.5115C308.422 34.6041 308.221 34.6712 308.019 34.7093C307.816 34.7475 307.584 34.7674 307.323 34.7674ZM307.174 31.466C306.916 31.466 306.708 31.5477 306.553 31.7074C306.397 31.8689 306.305 32.1049 306.275 32.4134H308.013C308.01 32.1012 307.932 31.8653 307.785 31.7056C307.638 31.5458 307.435 31.4642 307.176 31.4642" fill="white"/>
<path d="M312.306 33.6258C312.306 33.9943 312.17 34.2774 311.898 34.4734C311.625 34.6694 311.235 34.7693 310.729 34.7693C310.222 34.7693 309.81 34.693 309.501 34.5406V33.8472C309.95 34.0523 310.37 34.154 310.756 34.154C311.257 34.154 311.507 34.0051 311.507 33.7075C311.507 33.6113 311.48 33.5333 311.424 33.4679C311.369 33.4044 311.277 33.3391 311.152 33.2701C311.025 33.2011 310.848 33.1249 310.622 33.0378C310.182 32.869 309.883 32.702 309.727 32.5332C309.57 32.3644 309.493 32.1466 309.493 31.878C309.493 31.5549 309.626 31.3045 309.889 31.1266C310.152 30.9487 310.513 30.8598 310.966 30.8598C311.419 30.8598 311.842 30.9506 312.244 31.1284L311.98 31.7328C311.568 31.564 311.22 31.4805 310.938 31.4805C310.509 31.4805 310.294 31.6021 310.294 31.8417C310.294 31.9597 310.349 32.0595 310.462 32.1412C310.574 32.2228 310.817 32.3354 311.194 32.4788C311.511 32.5985 311.739 32.7093 311.883 32.8091C312.027 32.9089 312.131 33.0251 312.201 33.1557C312.271 33.2864 312.305 33.4425 312.305 33.624" fill="white"/>
<path d="M313.137 29.9269C313.137 29.7835 313.177 29.6728 313.256 29.5966C313.336 29.5185 313.45 29.4804 313.597 29.4804C313.744 29.4804 313.851 29.5185 313.93 29.5966C314.009 29.6746 314.05 29.7853 314.05 29.9269C314.05 30.0685 314.009 30.1701 313.93 30.25C313.851 30.328 313.739 30.3679 313.597 30.3679C313.455 30.3679 313.336 30.328 313.256 30.25C313.177 30.1719 313.137 30.0648 313.137 29.9269ZM313.998 34.6985H313.185V30.9251H313.998V34.6985Z" fill="white"/>
<path d="M317.556 34.7003L317.394 34.1758H317.366C317.182 34.4044 316.996 34.5623 316.808 34.644C316.622 34.7275 316.381 34.7693 316.088 34.7693C315.713 34.7693 315.418 34.6694 315.208 34.4698C314.997 34.2701 314.892 33.987 314.892 33.6204C314.892 33.232 315.039 32.9379 315.332 32.7401C315.624 32.5423 316.072 32.4352 316.67 32.4152L317.331 32.3953V32.1938C317.331 31.9524 317.274 31.7727 317.16 31.6529C317.046 31.5332 316.869 31.4733 316.628 31.4733C316.433 31.4733 316.243 31.5023 316.064 31.5586C315.884 31.6148 315.711 31.682 315.545 31.76L315.282 31.1865C315.49 31.0794 315.716 30.9977 315.963 30.9433C316.21 30.887 316.444 30.8598 316.663 30.8598C317.149 30.8598 317.517 30.9633 317.766 31.1738C318.014 31.3825 318.137 31.711 318.137 32.1593V34.7003H317.556ZM316.344 34.154C316.639 34.154 316.876 34.0723 317.055 33.9108C317.233 33.7474 317.324 33.5206 317.324 33.2265V32.8998L316.832 32.9198C316.449 32.9325 316.171 32.996 315.996 33.1086C315.821 33.2211 315.735 33.3935 315.735 33.6258C315.735 33.7946 315.785 33.9235 315.888 34.016C315.989 34.1086 316.142 34.154 316.344 34.154Z" fill="white"/>
</svg>
